<svg id="Layer_1" data-name="Layer 1" xmlns="http://www.w3.org/2000/svg" viewBox="0 0 97.35 198.83"><defs><style>.cls-1{fill:#2e343f;}</style></defs><path class="cls-1" d="M148,554.88c-1.08-3.1-5.62-5.42-11.05-5.42s-10,2.32-11,5.42Z" transform="translate(-74.69 -520.83)"/><ellipse class="cls-1" cx="62.23" cy="27.84" rx="3.66" ry="2.39"/><path class="cls-1" d="M141.05,525c0,2.29-4.14,26.41-4.14,26.41s-4.13-24.12-4.13-26.41a4.14,4.14,0,0,1,8.27,0Z" transform="translate(-74.69 -520.83)"/><path class="cls-1" d="M126.63,556.46h19.72a67.51,67.51,0,0,0-2.23,12.09c-1,8.27,5.73,8,13.37,6.36s19.4,4.45,12.4,22.27S137.44,628,137.44,628s11.77-8.27,19.41-17.81,2.86-19.72-7.32-16.86a24,24,0,0,0-14.31,11.13s-8.91-15.9-19.73-13.68-6,12.41-.95,20.05a94.49,94.49,0,0,0,12.72,14.63s-18-12.45-25.13-29.9c-7.63-18.77,3.5-24.5,12.41-22s13,1.91,14.31-3.19S126.63,556.46,126.63,556.46Z" transform="translate(-74.69 -520.83)"/><path class="cls-1" d="M121.22,623.26a19.48,19.48,0,0,0,9.86,6.37c7,1.9,10.82,0,10.82,0v12.72S122.81,637.9,121.22,623.26Z" transform="translate(-74.69 -520.83)"/><path class="cls-1" d="M119.31,628.35s-28.89,3.2-39.45,24.5c-17.49,35.31,15,66.49,15,66.49h15.27s-13.37-5.41-20.36-27.68S88.77,640.76,119.31,628.35Z" transform="translate(-74.69 -520.83)"/><path class="cls-1" d="M142.53,643.62s18.24,12.78,15.27,38.81c-2.86,25.13-21,36.91-21,36.91l-19.09.31s24.81-7.63,33.08-33.4C159.71,658.52,142.53,643.62,142.53,643.62Z" transform="translate(-74.69 -520.83)"/></svg>