<svg id="Illustration" xmlns="http://www.w3.org/2000/svg" xmlns:xlink="http://www.w3.org/1999/xlink" viewBox="0 0 2255.15 1377.39"><defs><style>.cls-1{fill:url(#linear-gradient);}.cls-2{fill:#bdd0fb;}.cls-3{fill:#91b3fa;}.cls-4{fill:#7d97f4;}.cls-5{fill:url(#linear-gradient-2);}.cls-6{fill:url(#linear-gradient-3);}.cls-7{fill:url(#linear-gradient-4);}.cls-8{fill:url(#linear-gradient-5);}.cls-9{fill:url(#linear-gradient-6);}.cls-10{fill:url(#linear-gradient-7);}.cls-11{fill:url(#linear-gradient-8);}.cls-12{fill:url(#linear-gradient-9);}.cls-13{fill:url(#linear-gradient-10);}.cls-14{fill:url(#linear-gradient-11);}.cls-15{fill:url(#linear-gradient-12);}.cls-16{fill:url(#linear-gradient-13);}.cls-17{fill:url(#linear-gradient-14);}.cls-18{fill:url(#linear-gradient-15);}.cls-19{fill:url(#linear-gradient-16);}.cls-20{fill:url(#linear-gradient-17);}.cls-21{fill:url(#linear-gradient-18);}.cls-22{fill:url(#linear-gradient-19);}.cls-23{fill:url(#linear-gradient-20);}.cls-24{fill:url(#linear-gradient-21);}.cls-25{fill:url(#linear-gradient-22);}.cls-26{fill:url(#linear-gradient-23);}.cls-27{fill:url(#linear-gradient-24);}.cls-28{fill:url(#linear-gradient-25);}.cls-29{fill:url(#linear-gradient-26);}.cls-30{fill:url(#linear-gradient-27);}.cls-31{fill:url(#linear-gradient-28);}.cls-32{fill:url(#linear-gradient-29);}.cls-33{fill:url(#linear-gradient-30);}.cls-34{fill:url(#linear-gradient-31);}.cls-35{fill:url(#linear-gradient-32);}.cls-36{fill:url(#linear-gradient-33);}.cls-37{fill:url(#linear-gradient-34);}.cls-38{fill:url(#linear-gradient-35);}.cls-39{fill:url(#linear-gradient-36);}.cls-40{fill:url(#linear-gradient-37);}.cls-41{fill:url(#linear-gradient-38);}.cls-42{fill:url(#linear-gradient-39);}.cls-43{fill:url(#linear-gradient-40);}.cls-44{fill:url(#linear-gradient-41);}.cls-45{fill:url(#linear-gradient-42);}.cls-46{fill:url(#linear-gradient-43);}.cls-47{fill:url(#linear-gradient-44);}.cls-48{fill:url(#linear-gradient-45);}.cls-49{fill:url(#linear-gradient-46);}.cls-50{fill:url(#linear-gradient-47);}.cls-51{fill:url(#linear-gradient-48);}.cls-52{fill:url(#linear-gradient-49);}.cls-53{fill:url(#linear-gradient-50);}.cls-54{fill:url(#linear-gradient-51);}.cls-55{fill:url(#linear-gradient-52);}.cls-56{fill:url(#linear-gradient-53);}.cls-57{fill:url(#linear-gradient-54);}.cls-58{fill:url(#linear-gradient-55);}.cls-59{fill:url(#linear-gradient-56);}.cls-60{fill:url(#linear-gradient-57);}.cls-61{fill:url(#linear-gradient-58);}.cls-62{fill:url(#linear-gradient-59);}.cls-63{fill:url(#linear-gradient-60);}.cls-64{fill:url(#linear-gradient-61);}.cls-65{fill:url(#linear-gradient-62);}.cls-66{fill:url(#linear-gradient-63);}.cls-67{fill:url(#linear-gradient-64);}.cls-68{fill:url(#linear-gradient-65);}.cls-69{fill:url(#linear-gradient-66);}.cls-70{fill:url(#linear-gradient-67);}.cls-71{fill:url(#linear-gradient-68);}.cls-72{fill:url(#linear-gradient-69);}.cls-73{fill:url(#linear-gradient-70);}.cls-74{fill:url(#linear-gradient-71);}.cls-75{fill:url(#linear-gradient-72);}.cls-76{fill:url(#linear-gradient-73);}.cls-77{fill:url(#linear-gradient-74);}.cls-78{fill:url(#linear-gradient-75);}.cls-79{fill:url(#linear-gradient-76);}.cls-80{fill:url(#linear-gradient-77);}.cls-81{fill:url(#linear-gradient-78);}.cls-82{fill:url(#linear-gradient-79);}.cls-83{fill:url(#linear-gradient-80);}.cls-84{fill:url(#linear-gradient-81);}.cls-85{fill:url(#linear-gradient-82);}.cls-86{fill:url(#linear-gradient-83);}.cls-87{fill:url(#linear-gradient-84);}.cls-88{fill:url(#linear-gradient-85);}.cls-89{fill:url(#linear-gradient-86);}.cls-90{fill:url(#linear-gradient-87);}.cls-91{fill:url(#linear-gradient-88);}.cls-92{fill:url(#linear-gradient-89);}.cls-93{fill:url(#linear-gradient-90);}.cls-94{fill:url(#linear-gradient-91);}.cls-95{fill:url(#linear-gradient-92);}.cls-96{fill:url(#linear-gradient-93);}.cls-97{fill:url(#linear-gradient-94);}.cls-98{fill:url(#linear-gradient-95);}.cls-99{fill:url(#linear-gradient-96);}.cls-100{fill:url(#linear-gradient-97);}.cls-101{fill:url(#linear-gradient-98);}.cls-102{fill:url(#linear-gradient-99);}.cls-103{fill:url(#linear-gradient-100);}.cls-104{fill:url(#linear-gradient-101);}.cls-105{fill:url(#linear-gradient-102);}.cls-106{fill:url(#linear-gradient-103);}.cls-107{fill:url(#linear-gradient-104);}.cls-108{fill:url(#linear-gradient-105);}.cls-109{fill:url(#linear-gradient-106);}.cls-110{fill:url(#linear-gradient-107);}.cls-111{fill:url(#linear-gradient-108);}.cls-112{fill:#fff;}.cls-113{fill:url(#linear-gradient-109);}.cls-114{fill:url(#linear-gradient-110);}.cls-115{fill:url(#linear-gradient-111);}.cls-116{fill:url(#linear-gradient-112);}.cls-117{fill:url(#linear-gradient-113);}.cls-118{fill:url(#linear-gradient-114);}.cls-119{fill:url(#linear-gradient-115);}.cls-120{fill:url(#linear-gradient-116);}.cls-121{fill:url(#linear-gradient-117);}.cls-122{fill:url(#linear-gradient-118);}.cls-123{fill:url(#linear-gradient-119);}.cls-124{fill:url(#linear-gradient-120);}.cls-125{opacity:0.6;}.cls-126{fill:url(#linear-gradient-121);}.cls-127{fill:url(#linear-gradient-122);}</style><linearGradient id="linear-gradient" x1="258.93" y1="876.53" x2="2361.76" y2="876.53" gradientUnits="userSpaceOnUse"><stop offset="0" stop-color="#dae3fe"/><stop offset="1" stop-color="#e9effd"/></linearGradient><linearGradient id="linear-gradient-2" x1="1045.63" y1="1225.7" x2="1133.1" y2="1225.7" gradientUnits="userSpaceOnUse"><stop offset="0" stop-color="#ff928e"/><stop offset="1" stop-color="#feb3b1"/></linearGradient><linearGradient id="linear-gradient-3" x1="1218.46" y1="1226.54" x2="1363.34" y2="1226.54" xlink:href="#linear-gradient-2"/><linearGradient id="linear-gradient-4" x1="1077.14" y1="1420.52" x2="1141.96" y2="1420.52" gradientUnits="userSpaceOnUse"><stop offset="0" stop-color="#09005d"/><stop offset="1" stop-color="#1a0f91"/></linearGradient><linearGradient id="linear-gradient-5" x1="1292.14" y1="1403.85" x2="1372.61" y2="1403.85" xlink:href="#linear-gradient-4"/><linearGradient id="linear-gradient-6" x1="1033.64" y1="828.01" x2="1299.14" y2="828.01" gradientUnits="userSpaceOnUse"><stop offset="0" stop-color="#e1473d"/><stop offset="1" stop-color="#e9605a"/></linearGradient><linearGradient id="linear-gradient-7" x1="933.86" y1="541.25" x2="1046.76" y2="541.25" xlink:href="#linear-gradient-6"/><linearGradient id="linear-gradient-8" x1="997.71" y1="352.17" x2="1097.33" y2="352.17" xlink:href="#linear-gradient-6"/><linearGradient id="linear-gradient-9" x1="1246.01" y1="535.71" x2="1338.35" y2="535.71" xlink:href="#linear-gradient-6"/><linearGradient id="linear-gradient-10" x1="1209.01" y1="410.01" x2="1628.92" y2="-699.76" gradientUnits="userSpaceOnUse"><stop offset="0" stop-color="#fe7062"/><stop offset="1" stop-color="#ff928e"/></linearGradient><linearGradient id="linear-gradient-11" x1="1330.54" y1="456" x2="1750.45" y2="-653.78" xlink:href="#linear-gradient-10"/><linearGradient id="linear-gradient-12" x1="1221.57" y1="276.39" x2="1157.57" y2="552.39" gradientUnits="userSpaceOnUse"><stop offset="0" stop-color="#4042e2"/><stop offset="1" stop-color="#4f52ff"/></linearGradient><linearGradient id="linear-gradient-13" x1="1209.24" y1="83.97" x2="1175.24" y2="233.97" xlink:href="#linear-gradient-12"/><linearGradient id="linear-gradient-14" x1="1158.24" y1="320.69" x2="1098.24" y2="586.69" xlink:href="#linear-gradient-12"/><linearGradient id="linear-gradient-15" x1="1210.3" y1="377.79" x2="1141.3" y2="485.78" xlink:href="#linear-gradient-2"/><linearGradient id="linear-gradient-16" x1="1367.06" y1="477.95" x2="1298.07" y2="585.94" xlink:href="#linear-gradient-2"/><linearGradient id="linear-gradient-17" x1="1190.66" y1="249.02" x2="1226.23" y2="249.02" xlink:href="#linear-gradient-4"/><linearGradient id="linear-gradient-18" x1="1088.83" y1="265.53" x2="1213.43" y2="265.53" xlink:href="#linear-gradient-2"/><linearGradient id="linear-gradient-19" x1="948.91" y1="224.58" x2="1220.04" y2="224.58" xlink:href="#linear-gradient-4"/><linearGradient id="linear-gradient-20" x1="1078.02" y1="274.53" x2="1094.42" y2="274.53" xlink:href="#linear-gradient-2"/><linearGradient id="linear-gradient-21" x1="1925.18" y1="875.95" x2="1979.46" y2="875.95" xlink:href="#linear-gradient-2"/><linearGradient id="linear-gradient-22" x1="1923.4" y1="911.32" x2="1915.41" y2="1033.74" xlink:href="#linear-gradient-12"/><linearGradient id="linear-gradient-23" x1="1784.45" y1="879.66" x2="1898.99" y2="879.66" xlink:href="#linear-gradient-2"/><linearGradient id="linear-gradient-24" x1="2100.62" y1="558.24" x2="2034.61" y2="684.25" xlink:href="#linear-gradient-4"/><linearGradient id="linear-gradient-25" x1="1846.35" y1="906.29" x2="1838.37" y2="1028.71" xlink:href="#linear-gradient-12"/><linearGradient id="linear-gradient-26" x1="3537" y1="-1054.76" x2="3462.79" y2="-1078.7" gradientTransform="matrix(0.68, 0.74, -0.74, 0.68, -1138.19, -1170.1)" xlink:href="#linear-gradient-4"/><linearGradient id="linear-gradient-27" x1="2694.44" y1="214.45" x2="2759.95" y2="357.03" gradientTransform="translate(-526.52 -313.85) rotate(17.52)" xlink:href="#linear-gradient-12"/><linearGradient id="linear-gradient-28" x1="1974.04" y1="629.74" x2="1990.04" y2="739.74" xlink:href="#linear-gradient-2"/><linearGradient id="linear-gradient-29" x1="683.66" y1="1539.69" x2="709.66" y2="1476.69" gradientTransform="translate(728.19 133.01) rotate(-25.15)" xlink:href="#linear-gradient-2"/><linearGradient id="linear-gradient-30" x1="946.84" y1="959.38" x2="902.91" y2="1002.35" gradientTransform="translate(728.19 133.01) rotate(-25.15)" xlink:href="#linear-gradient-4"/><linearGradient id="linear-gradient-31" x1="697.27" y1="1545.31" x2="723.27" y2="1482.31" gradientTransform="translate(728.19 133.01) rotate(-25.15)" xlink:href="#linear-gradient-2"/><linearGradient id="linear-gradient-32" x1="1465.71" y1="975.73" x2="1573.31" y2="975.73" gradientTransform="translate(361.4 116.81) rotate(-11.27)" xlink:href="#linear-gradient-2"/><linearGradient id="linear-gradient-33" x1="-2034.84" y1="992.55" x2="-2004.42" y2="1068.85" gradientTransform="translate(4020.21)" xlink:href="#linear-gradient-4"/><linearGradient id="linear-gradient-34" x1="-2290.23" y1="854.26" x2="-2234.03" y2="982.12" gradientTransform="translate(3972.87 -266.75) rotate(-12.16)" xlink:href="#linear-gradient-2"/><linearGradient id="linear-gradient-35" x1="-1923.64" y1="1481.06" x2="-1897.85" y2="1481.06" gradientTransform="translate(4020.21)" xlink:href="#linear-gradient-12"/><linearGradient id="linear-gradient-36" x1="-2032.63" y1="1582.78" x2="-1995.51" y2="1148.95" gradientTransform="translate(4020.21)" xlink:href="#linear-gradient-2"/><linearGradient id="linear-gradient-37" x1="-2043.48" y1="1476.35" x2="-2001.74" y2="1476.35" gradientTransform="translate(4020.21)" xlink:href="#linear-gradient-12"/><linearGradient id="linear-gradient-38" x1="-1957.96" y1="1589.24" x2="-1920.84" y2="1155.29" gradientTransform="translate(4020.21)" xlink:href="#linear-gradient-2"/><linearGradient id="linear-gradient-39" x1="-2031.72" y1="1145.28" x2="-2013.16" y2="1317.49" gradientTransform="translate(4020.21)" xlink:href="#linear-gradient-10"/><linearGradient id="linear-gradient-40" x1="-1962.17" y1="1206.06" x2="-2054.98" y2="1354.55" gradientTransform="translate(4020.21)" xlink:href="#linear-gradient-12"/><linearGradient id="linear-gradient-41" x1="-2036.7" y1="1155.15" x2="-2029.73" y2="1104.14" gradientTransform="translate(4020.21)" xlink:href="#linear-gradient-2"/><linearGradient id="linear-gradient-42" x1="-2229.12" y1="917.11" x2="-2168.28" y2="808.83" gradientTransform="translate(3979.45 -238.99) rotate(-11.2)" xlink:href="#linear-gradient-2"/><linearGradient id="linear-gradient-43" x1="-2216.04" y1="822.81" x2="-2185.62" y2="899.12" gradientTransform="translate(3979.45 -238.99) rotate(-11.2)" xlink:href="#linear-gradient-4"/><linearGradient id="linear-gradient-44" x1="-2216.17" y1="924.38" x2="-2155.33" y2="816.11" gradientTransform="translate(3979.45 -238.99) rotate(-11.2)" xlink:href="#linear-gradient-2"/><linearGradient id="linear-gradient-45" x1="-2301.33" y1="859.14" x2="-2245.14" y2="987" gradientTransform="translate(3972.87 -266.75) rotate(-12.16)" xlink:href="#linear-gradient-2"/><linearGradient id="linear-gradient-46" x1="-262.78" y1="1016.48" x2="-247.35" y2="1016.48" gradientTransform="matrix(-1, 0, 0, 1, 1618.78, 0)" xlink:href="#linear-gradient-2"/><linearGradient id="linear-gradient-47" x1="-511.03" y1="1194.57" x2="-387.2" y2="1194.57" gradientTransform="matrix(-1, 0, 0, 1, 1618.78, 0)" xlink:href="#linear-gradient-2"/><linearGradient id="linear-gradient-48" x1="-721.28" y1="635.38" x2="-676.72" y2="635.38" gradientTransform="matrix(-1, 0, 0, 1, -179.94, 0)" xlink:href="#linear-gradient-2"/><linearGradient id="linear-gradient-49" x1="-694.01" y1="664.42" x2="-700.57" y2="764.92" gradientTransform="matrix(-1, 0, 0, 1, -179.94, 0)" xlink:href="#linear-gradient-12"/><linearGradient id="linear-gradient-50" x1="-773.61" y1="638.42" x2="-679.57" y2="638.42" gradientTransform="matrix(-1, 0, 0, 1, -179.94, 0)" xlink:href="#linear-gradient-2"/><linearGradient id="linear-gradient-51" x1="-757.27" y1="660.29" x2="-763.82" y2="760.8" gradientTransform="matrix(-1, 0, 0, 1, -179.94, 0)" xlink:href="#linear-gradient-12"/><linearGradient id="linear-gradient-52" x1="-611.76" y1="452.31" x2="-647.77" y2="487.54" gradientTransform="matrix(-1, 0, 0, 1, -179.94, 0)" xlink:href="#linear-gradient-6"/><linearGradient id="linear-gradient-53" x1="507.18" y1="453.87" x2="484.84" y2="493.21" xlink:href="#linear-gradient-2"/><linearGradient id="linear-gradient-54" x1="-1401.64" y1="-1129.29" x2="-1394.97" y2="-1102.29" gradientTransform="matrix(-0.97, -0.26, -0.26, 0.97, -546.54, 96.08)" xlink:href="#linear-gradient-2"/><linearGradient id="linear-gradient-55" x1="-1069.73" y1="36.88" x2="-1105.79" y2="72.16" gradientTransform="matrix(-0.97, -0.26, -0.26, 0.97, -546.54, 96.08)" xlink:href="#linear-gradient-6"/><linearGradient id="linear-gradient-56" x1="-1391.35" y1="-1131.83" x2="-1384.69" y2="-1104.83" gradientTransform="matrix(-0.97, -0.26, -0.26, 0.97, -546.54, 96.08)" xlink:href="#linear-gradient-2"/><linearGradient id="linear-gradient-57" x1="-641.95" y1="556.28" x2="-553.61" y2="556.28" gradientTransform="matrix(-1, 0, 0, 1, -179.94, 0)" xlink:href="#linear-gradient-2"/><linearGradient id="linear-gradient-58" x1="578.68" y1="554.64" x2="564.52" y2="596.29" gradientTransform="matrix(0.99, -0.16, 0.16, 0.99, -140.11, 71.02)" xlink:href="#linear-gradient-2"/><linearGradient id="linear-gradient-59" x1="470.98" y1="532.9" x2="388.31" y2="634.23" xlink:href="#linear-gradient-12"/><linearGradient id="linear-gradient-60" x1="489.13" y1="736.69" x2="538.85" y2="736.69" xlink:href="#linear-gradient-12"/><linearGradient id="linear-gradient-61" x1="527.44" y1="641.07" x2="513.85" y2="734.94" xlink:href="#linear-gradient-4"/><linearGradient id="linear-gradient-62" x1="491.61" y1="721.7" x2="505.06" y2="721.7" xlink:href="#linear-gradient-2"/><linearGradient id="linear-gradient-63" x1="567.12" y1="726.84" x2="607.27" y2="726.84" xlink:href="#linear-gradient-12"/><linearGradient id="linear-gradient-64" x1="594.74" y1="650.81" x2="581.15" y2="744.68" xlink:href="#linear-gradient-4"/><linearGradient id="linear-gradient-65" x1="550.18" y1="592.9" x2="367.19" y2="745.89" xlink:href="#linear-gradient-4"/><linearGradient id="linear-gradient-66" x1="555.34" y1="722.84" x2="571.4" y2="722.84" xlink:href="#linear-gradient-2"/><linearGradient id="linear-gradient-67" x1="476.04" y1="438.41" x2="476.04" y2="562.9" xlink:href="#linear-gradient-4"/><linearGradient id="linear-gradient-68" x1="452.36" y1="494.72" x2="347.55" y2="670.26" xlink:href="#linear-gradient-12"/><linearGradient id="linear-gradient-69" x1="420.19" y1="466.84" x2="448.93" y2="466.84" xlink:href="#linear-gradient-2"/><linearGradient id="linear-gradient-70" x1="1190.85" y1="222.46" x2="1232.72" y2="222.46" gradientTransform="matrix(0.96, 0.28, -0.28, 0.96, -598.3, 4.02)" xlink:href="#linear-gradient-12"/><linearGradient id="linear-gradient-71" x1="558.15" y1="398.56" x2="534.81" y2="461.9" xlink:href="#linear-gradient-4"/><linearGradient id="linear-gradient-72" x1="-220.35" y1="2056.34" x2="-261.31" y2="2110.54" gradientTransform="translate(-51.22 -1572.76) rotate(-20.41)" xlink:href="#linear-gradient-2"/><linearGradient id="linear-gradient-73" x1="-251.63" y1="2069.41" x2="-202.7" y2="2069.41" gradientTransform="translate(-51.22 -1572.76) rotate(-20.41)" xlink:href="#linear-gradient-4"/><linearGradient id="linear-gradient-74" x1="-280.35" y1="2099.26" x2="-247.49" y2="2065.55" gradientTransform="translate(-51.22 -1572.76) rotate(-20.41)" xlink:href="#linear-gradient-2"/><linearGradient id="linear-gradient-75" x1="478.08" y1="427.9" x2="460.74" y2="493.24" xlink:href="#linear-gradient-12"/><linearGradient id="linear-gradient-76" x1="1096.57" y1="277.05" x2="1155.09" y2="209.36" gradientTransform="matrix(0.96, 0.28, -0.28, 0.96, -598.3, 4.02)" gradientUnits="userSpaceOnUse"><stop offset="0" stop-color="#53d8ff"/><stop offset="1" stop-color="#3840f7"/></linearGradient><linearGradient id="linear-gradient-77" x1="397.43" y1="598.58" x2="346.76" y2="717.25" xlink:href="#linear-gradient-12"/><linearGradient id="linear-gradient-78" x1="1215.77" y1="223.8" x2="1173.23" y2="292.82" gradientTransform="matrix(0.96, 0.28, -0.28, 0.96, -598.3, 4.02)" xlink:href="#linear-gradient-2"/><linearGradient id="linear-gradient-79" x1="882.43" y1="1086.23" x2="682.94" y2="1290.22" xlink:href="#linear-gradient-2"/><linearGradient id="linear-gradient-80" x1="1000.42" y1="912.79" x2="902.93" y2="1037.28" xlink:href="#linear-gradient-2"/><linearGradient id="linear-gradient-81" x1="807.99" y1="1372.8" x2="842.62" y2="1372.8" xlink:href="#linear-gradient-12"/><linearGradient id="linear-gradient-82" x1="762.64" y1="1342.56" x2="792.55" y2="1342.56" xlink:href="#linear-gradient-12"/><linearGradient id="linear-gradient-83" x1="901.58" y1="587.69" x2="783.58" y2="927.69" xlink:href="#linear-gradient-2"/><linearGradient id="linear-gradient-84" x1="841.72" y1="566.91" x2="723.72" y2="906.91" xlink:href="#linear-gradient-2"/><linearGradient id="linear-gradient-85" x1="862.56" y1="461.25" x2="831.56" y2="535.25" xlink:href="#linear-gradient-2"/><linearGradient id="linear-gradient-86" x1="835.74" y1="450.01" x2="804.74" y2="524.01" xlink:href="#linear-gradient-2"/><linearGradient id="linear-gradient-87" x1="897.06" y1="475.7" x2="866.06" y2="549.7" xlink:href="#linear-gradient-2"/><linearGradient id="linear-gradient-88" x1="1024.52" y1="170.11" x2="904.52" y2="378.11" xlink:href="#linear-gradient-4"/><linearGradient id="linear-gradient-89" x1="892.55" y1="605.56" x2="632.23" y2="1371.72" xlink:href="#linear-gradient-12"/><linearGradient id="linear-gradient-90" x1="1576.53" y1="1193.63" x2="1550.89" y2="1260.68" xlink:href="#linear-gradient-4"/><linearGradient id="linear-gradient-91" x1="1554.37" y1="878" x2="1554.37" y2="1322" xlink:href="#linear-gradient-12"/><linearGradient id="linear-gradient-92" x1="1587.55" y1="1029.07" x2="1549.55" y2="1209.07" xlink:href="#linear-gradient-4"/><linearGradient id="linear-gradient-93" x1="1489.47" y1="878" x2="1489.47" y2="1322" xlink:href="#linear-gradient-12"/><linearGradient id="linear-gradient-94" x1="1407.38" y1="988.4" x2="1435.86" y2="988.4" xlink:href="#linear-gradient-2"/><linearGradient id="linear-gradient-95" x1="1480.35" y1="552.8" x2="1422.35" y2="886.8" xlink:href="#linear-gradient-12"/><linearGradient id="linear-gradient-96" x1="1672.43" y1="586.15" x2="1614.43" y2="920.15" xlink:href="#linear-gradient-12"/><linearGradient id="linear-gradient-97" x1="1533.36" y1="648.7" x2="1493.36" y2="866.7" xlink:href="#linear-gradient-2"/><linearGradient id="linear-gradient-98" x1="1523.12" y1="560.22" x2="1465.07" y2="894.48" xlink:href="#linear-gradient-12"/><linearGradient id="linear-gradient-99" x1="1624.58" y1="577.84" x2="1566.58" y2="911.84" xlink:href="#linear-gradient-12"/><linearGradient id="linear-gradient-100" x1="1747.89" y1="688.65" x2="1507.28" y2="952.93" xlink:href="#linear-gradient-10"/><linearGradient id="linear-gradient-101" x1="1573.42" y1="801.33" x2="1617.93" y2="801.33" xlink:href="#linear-gradient-6"/><linearGradient id="linear-gradient-102" x1="1603.77" y1="842.26" x2="1657.91" y2="842.26" xlink:href="#linear-gradient-6"/><linearGradient id="linear-gradient-103" x1="1681.86" y1="787.18" x2="1650.86" y2="851.18" xlink:href="#linear-gradient-2"/><linearGradient id="linear-gradient-104" x1="1570.38" y1="377.76" x2="1516.38" y2="531.76" xlink:href="#linear-gradient-4"/><linearGradient id="linear-gradient-105" x1="1526.71" y1="450.06" x2="1513.71" y2="596.06" xlink:href="#linear-gradient-2"/><linearGradient id="linear-gradient-106" x1="1491.66" y1="446.94" x2="1478.66" y2="592.94" xlink:href="#linear-gradient-2"/><linearGradient id="linear-gradient-107" x1="1563.68" y1="453.35" x2="1550.68" y2="599.35" xlink:href="#linear-gradient-2"/><linearGradient id="linear-gradient-108" x1="1570.26" y1="377.71" x2="1516.26" y2="531.71" xlink:href="#linear-gradient-4"/><linearGradient id="linear-gradient-109" x1="635.43" y1="989.41" x2="532.77" y2="1141.41" xlink:href="#linear-gradient-2"/><linearGradient id="linear-gradient-110" x1="-434.86" y1="-967.24" x2="-445.59" y2="-802.71" gradientTransform="matrix(-0.9, -0.44, -0.44, 0.9, -163.45, 1782.81)" xlink:href="#linear-gradient-12"/><linearGradient id="linear-gradient-111" x1="623.45" y1="951.55" x2="602.78" y2="1000.88" xlink:href="#linear-gradient-2"/><linearGradient id="linear-gradient-112" x1="161.77" y1="-1709.09" x2="151.04" y2="-1544.57" gradientTransform="matrix(-0.79, -0.61, -0.61, 0.79, -292.03, 2595.02)" xlink:href="#linear-gradient-12"/><linearGradient id="linear-gradient-113" x1="445.78" y1="1051.48" x2="580.8" y2="735.34" xlink:href="#linear-gradient-12"/><linearGradient id="linear-gradient-114" x1="-2943.34" y1="482.9" x2="-2911.3" y2="563.28" gradientTransform="matrix(-1, -0.07, -0.07, 1, -2409.35, 58.02)" xlink:href="#linear-gradient-4"/><linearGradient id="linear-gradient-115" x1="8343.8" y1="874.53" x2="8014.29" y2="1192.38" gradientTransform="translate(-7831.7)" xlink:href="#linear-gradient-10"/><linearGradient id="linear-gradient-116" x1="609.87" y1="852.14" x2="512.38" y2="928.63" xlink:href="#linear-gradient-2"/><linearGradient id="linear-gradient-117" x1="-2944.79" y1="648.2" x2="-2937.8" y2="597.05" gradientTransform="matrix(-1, -0.07, -0.07, 1, -2409.35, 58.02)" xlink:href="#linear-gradient-2"/><linearGradient id="linear-gradient-118" x1="-3023.03" y1="244.99" x2="-2958.94" y2="130.93" gradientTransform="matrix(-0.96, -0.26, -0.26, 0.96, -2351.93, -176.59)" xlink:href="#linear-gradient-2"/><linearGradient id="linear-gradient-119" x1="-3009.25" y1="145.66" x2="-2977.2" y2="226.04" gradientTransform="matrix(-0.96, -0.26, -0.26, 0.96, -2351.93, -176.59)" xlink:href="#linear-gradient-4"/><linearGradient id="linear-gradient-120" x1="-3009.39" y1="252.65" x2="-2945.3" y2="138.6" gradientTransform="matrix(-0.96, -0.26, -0.26, 0.96, -2351.93, -176.59)" xlink:href="#linear-gradient-2"/><linearGradient id="linear-gradient-121" x1="-497.32" y1="581.75" x2="-324.25" y2="581.75" gradientTransform="translate(764.58 -442.4) rotate(-22.31)" xlink:href="#linear-gradient-2"/><linearGradient id="linear-gradient-122" x1="610.43" y1="1098.12" x2="783.5" y2="1098.12" gradientTransform="translate(764.58 -442.4) rotate(-22.31)" xlink:href="#linear-gradient-2"/></defs><path class="cls-1" d="M797.24,1513.67s-186.67-24.09-275.31-5.28S213.73,1425.16,286.5,1265s155.16-259.41,60-347-125.13-254.37-27-348.11,127.69,2.71,205.89-31.81-21.1-214.59,199.81-265.47,392.55,102.86,493,85.5,254.87-123.83,363.26-119.35,95,161.21,238.78,152.07S2077,365.91,2170.14,499.32s70.77,302.63-18.06,369.5-71.5,156.8,92.28,161.95,145.34,191.68,11.69,329.37-248.31,139.22-381.81,148.25S797.24,1513.67,797.24,1513.67Z" transform="translate(-106.61 -137.05)"/><path class="cls-2" d="M1407.23,1192.09s141.42,17.55,167.34-164.19S1634,684.9,1797,622.34c146.93-56.38,267.23-16,342-59.2,4.54-2.62,9.42,2.93,6.28,7.13-24.12,32.24-177.58,73.51-251,218.57C1703,1166.81,1574,1202.61,1407.23,1192.09Z" transform="translate(-106.61 -137.05)"/><path class="cls-3" d="M1529.77,1164.63l5.32-4.71c3.58-3,8.35-7.78,14.35-13.94,1.44-1.6,3-3.3,4.54-5.08s3.3-3.57,4.87-5.65c3.22-4.08,6.83-8.37,10.22-13.33,3.59-4.81,7-10.23,10.62-15.88,3.41-5.8,7.06-11.86,10.44-18.42a389.51,389.51,0,0,0,19.55-43.46c6-15.81,11.54-32.82,16.51-50.62s9.62-36.39,14.2-55.28,9.15-38.18,14.24-57.34,10.76-38.22,17.59-56.57A382,382,0,0,1,1695.83,772a266.83,266.83,0,0,1,30.62-44.32,238,238,0,0,1,34.88-33.3c5.84-4.68,11.91-8.52,17.6-12.27,5.94-3.36,11.49-6.68,17.09-9.08l4.06-1.9,2-.92,2-.76,7.67-2.89a66.06,66.06,0,0,1,7.2-2.28l6.61-1.9c4.22-1,8.07-1.65,11.38-2.32l2.39-.46,2.24-.23,3.87-.4,7.1-.71.07,1-7,1c-4.6.45-11.22,2-19.55,4l-6.47,2a67.1,67.1,0,0,0-7,2.45l-7.47,3.06-2,.8-1.92,1-3.94,2c-5.44,2.51-10.79,6-16.58,9.34-5.53,3.79-11.43,7.65-17.09,12.36a233.63,233.63,0,0,0-33.71,33.31,277.41,277.41,0,0,0-29.72,43.74,378.12,378.12,0,0,0-23,51.89c-6.57,18.21-12.36,37.06-17.51,56.11s-9.81,38.25-14.48,57.16-9.32,37.52-14.51,55.39-11,34.91-17.31,50.77a393.45,393.45,0,0,1-20.32,43.58c-3.48,6.6-7.32,12.63-10.89,18.41-3.8,5.63-7.34,11-11.07,15.79-3.53,4.93-7.28,9.19-10.61,13.23-1.63,2.05-3.43,3.82-5,5.59l-4.68,5c-6.21,6.1-11.21,10.76-14.84,13.63l-5.46,4.55Z" transform="translate(-106.61 -137.05)"/><path class="cls-3" d="M1393.38,1204.92s117.33,60.69,198.25-89,161.84-279.18,323.68-281.2c145.87-1.82,237.5,71.95,316.38,58.39a4.5,4.5,0,0,1,3.17,8.21c-31.33,20.29-178,6.87-288.47,109.42C1658.63,1277.94,1535,1267.63,1393.38,1204.92Z" transform="translate(-106.61 -137.05)"/><path class="cls-2" d="M1508.73,1220.38l6.14-2.4c4.07-1.44,9.76-4.09,17-7.52,3.5-1.93,7.48-3.86,11.62-6.32s8.62-5.1,13.15-8.32c4.67-3,9.35-6.66,14.32-10.41,4.83-3.94,9.94-8.05,15-12.67a361.07,361.07,0,0,0,30.94-31.5c10.33-11.81,20.56-24.84,30.59-38.73s20-28.54,30.09-43.51,20.22-30.26,30.81-45.29,21.62-29.79,33.47-43.55a354.56,354.56,0,0,1,37.38-38,247.09,247.09,0,0,1,40.91-28.71,220.06,220.06,0,0,1,41.06-17.73c6.59-2.19,13.11-3.58,19.27-5a166.85,166.85,0,0,1,17.79-2.39l4.14-.35,2-.16h2l7.61,0a63,63,0,0,1,7,.34l6.36.48c4,.47,7.55,1.16,10.65,1.65l2.23.37,2,.52,3.5.91,6.4,1.67-.27.94-6.42-1.39c-4.14-1.08-10.37-1.89-18.28-2.75l-6.29-.29a65,65,0,0,0-6.89-.12l-7.48.27-2,.07-2,.22-4.07.46c-5.52.44-11.29,1.74-17.4,2.81-6,1.52-12.38,3-18.81,5.27a216.27,216.27,0,0,0-40,18.15,257.17,257.17,0,0,0-39.86,28.48,349.75,349.75,0,0,0-36.66,37.71c-11.56,13.72-22.64,28.24-33.24,43.14s-20.82,30.11-31,45-20.17,29.63-30.43,43.5-20.79,26.82-31.39,38.59a365.32,365.32,0,0,1-31.7,31.36c-5.14,4.61-10.43,8.62-15.4,12.49-5.12,3.68-9.93,7.22-14.71,10.17-4.65,3.15-9.29,5.65-13.48,8.09s-8.3,4.24-11.87,6.09c-7.37,3.31-13.22,5.75-17.3,7.07l-6.21,2.2Z" transform="translate(-106.61 -137.05)"/><path class="cls-2" d="M1417.45,1205.23s91.76,95,216.31-20.92,242.63-212.75,396.62-162.9c138.79,44.93,202,144.14,281.09,156.51a4.5,4.5,0,0,1,.37,8.8c-36.18,9.2-170.87-50.43-308.31,11.41C1645.42,1359.26,1531.56,1309.94,1417.45,1205.23Z" transform="translate(-106.61 -137.05)"/><path class="cls-3" d="M1521.81,1256.77l6.58-.3c4.31-.07,10.55-.76,18.46-1.71,3.93-.71,8.33-1.26,13-2.27s9.8-2.07,15.13-3.68c5.38-1.37,11-3.31,16.89-5.27,5.84-2.2,12-4.45,18.25-7.22a362.58,362.58,0,0,0,39.39-20c13.56-7.89,27.42-17,41.37-26.91s28.12-20.63,42.42-31.6,28.84-22.2,43.68-33.06,30-21.31,45.64-30.56a355.54,355.54,0,0,1,47.57-24,247,247,0,0,1,47.93-14.11,221,221,0,0,1,44.59-3.67c6.94,0,13.56.8,19.85,1.42a169,169,0,0,1,17.62,3.42l4,1,2,.5,1.89.62,7.22,2.39a65.11,65.11,0,0,1,6.52,2.56l5.87,2.49c3.65,1.73,6.79,3.52,9.56,5l2,1.07L2041,1074l3,2,5.53,3.63-.56.81-5.63-3.37c-3.58-2.35-9.23-5.11-16.45-8.46l-5.86-2.28a63.11,63.11,0,0,0-6.49-2.32l-7.17-2.14-1.88-.55-1.94-.43-4-.86c-5.38-1.35-11.25-2-17.38-2.91-6.2-.48-12.69-1.12-19.52-1a216.32,216.32,0,0,0-43.68,4.41,258.24,258.24,0,0,0-46.87,14.23,350.44,350.44,0,0,0-46.79,24c-15.34,9.31-30.49,19.52-45.3,30.24s-29.36,21.87-43.74,32.78-28.58,21.62-42.74,31.49-28.28,18.76-42.08,26.51a365,365,0,0,1-40.07,19.58c-6.35,2.73-12.64,4.84-18.58,6.91-6,1.85-11.72,3.67-17.2,4.93-5.41,1.5-10.6,2.39-15.36,3.35s-9.22,1.37-13.2,2c-8,.77-14.35,1.22-18.64,1.16l-6.59.1Z" transform="translate(-106.61 -137.05)"/><path class="cls-3" d="M1025.36,1223.65S883.94,1241.19,858,1059.45s-59.39-343-222.4-405.55c-146.92-56.38-267.23-16-342-59.2-4.54-2.63-9.42,2.92-6.28,7.12,24.12,32.25,177.58,73.51,251,218.58C729.64,1198.36,858.62,1234.16,1025.36,1223.65Z" transform="translate(-106.61 -137.05)"/><path class="cls-2" d="M902.18,1196.94l-5.46-4.56c-3.63-2.87-8.63-7.53-14.84-13.63l-4.68-5c-1.61-1.78-3.41-3.54-5-5.6-3.33-4-7.08-8.3-10.6-13.22-3.74-4.78-7.27-10.17-11.08-15.8-3.57-5.77-7.41-11.81-10.89-18.4a394.3,394.3,0,0,1-20.32-43.58c-6.31-15.86-12.07-32.93-17.31-50.77s-9.83-36.47-14.51-55.4-9.32-38.11-14.48-57.16S762,875.92,755.46,857.7a377.32,377.32,0,0,0-23-51.88,276.73,276.73,0,0,0-29.72-43.74A233.11,233.11,0,0,0,669,728.77c-5.66-4.71-11.56-8.58-17.09-12.37-5.79-3.36-11.14-6.83-16.57-9.33l-3.94-2-1.93-1-2-.8-7.47-3.06a67,67,0,0,0-7-2.44l-6.47-2.06c-8.33-2.08-14.95-3.58-19.54-4l-7-1,.07-1,7.1.72,3.88.39,2.23.24,2.39.45c3.31.67,7.16,1.31,11.39,2.33l6.61,1.89a70.58,70.58,0,0,1,7.19,2.28l7.67,2.89,2,.76,2,.92,4.06,1.9c5.6,2.4,11.15,5.73,17.09,9.08,5.69,3.75,11.76,7.59,17.6,12.28a237.49,237.49,0,0,1,34.88,33.3,267,267,0,0,1,30.63,44.31,383.14,383.14,0,0,1,23.6,52.39c6.84,18.35,12.47,37.42,17.59,56.57s9.67,38.42,14.25,57.34,9.17,37.5,14.19,55.28,10.46,34.82,16.51,50.63a390.15,390.15,0,0,0,19.55,43.45c3.38,6.57,7,12.63,10.44,18.42,3.64,5.66,7,11.08,10.62,15.88,3.39,5,7,9.26,10.22,13.34,1.57,2.07,3.31,3.85,4.88,5.65l4.53,5.08c6,6.16,10.78,11,14.35,13.93l5.32,4.72Z" transform="translate(-106.61 -137.05)"/><path class="cls-2" d="M1005.69,1204.92s-117.34,60.69-198.25-89S645.6,836.73,483.76,834.71c-145.87-1.82-237.51,71.95-316.39,58.39a4.5,4.5,0,0,0-3.17,8.21c31.34,20.29,178,6.87,288.47,109.42C740.43,1277.94,864.08,1267.63,1005.69,1204.92Z" transform="translate(-106.61 -137.05)"/><path class="cls-3" d="M890,1221.3l-6.21-2.2c-4.09-1.32-9.93-3.76-17.3-7.07-3.57-1.85-7.64-3.7-11.87-6.09s-8.83-4.94-13.48-8.09c-4.79-2.95-9.6-6.49-14.72-10.17-5-3.87-10.25-7.88-15.4-12.49a366.74,366.74,0,0,1-31.7-31.36c-10.59-11.77-21.09-24.76-31.39-38.59s-20.28-28.55-30.43-43.5-20.35-30.14-31-45-21.69-29.42-33.24-43.14a349.75,349.75,0,0,0-36.66-37.71,257.65,257.65,0,0,0-39.86-28.48,216.35,216.35,0,0,0-40-18.15c-6.43-2.28-12.79-3.75-18.81-5.27-6.11-1.07-11.87-2.37-17.4-2.81l-4.06-.46-2-.22-2-.07-7.48-.27a65,65,0,0,0-6.89.12l-6.28.29c-7.91.86-14.15,1.67-18.29,2.75l-6.42,1.39-.27-.94,6.4-1.67,3.5-.91,2-.52,2.23-.37c3.09-.49,6.64-1.18,10.64-1.65l6.36-.48a63,63,0,0,1,7-.34l7.6,0h2l2,.16,4.15.35a167.19,167.19,0,0,1,17.79,2.39c6.15,1.43,12.67,2.82,19.26,5A220.42,220.42,0,0,1,579,903.47a247,247,0,0,1,40.9,28.71,355.58,355.58,0,0,1,37.39,38c11.84,13.76,22.87,28.54,33.47,43.55S711.5,1044,721.55,1059s20,29.67,30.1,43.51,20.25,26.92,30.58,38.73a362.5,362.5,0,0,0,30.94,31.5c5,4.62,10.15,8.73,15,12.67,5,3.75,9.66,7.38,14.32,10.41,4.53,3.22,9,5.8,13.16,8.32s8.11,4.39,11.62,6.32c7.18,3.43,12.88,6.08,16.94,7.52l6.14,2.4Z" transform="translate(-106.61 -137.05)"/><path class="cls-3" d="M942.34,1249.51s-94.51,80.11-199.91-39.73S535.86,988.57,387.5,1020.71c-133.72,29-202,115.65-276.94,119.81a4.22,4.22,0,0,0-1.17,8.17c32.9,12,164.17-31.1,286.66,39.45C715.2,1372,826.07,1336.57,942.34,1249.51Z" transform="translate(-106.61 -137.05)"/><path class="cls-2" d="M840,1288.81l-6.14-.7c-4-.34-9.87-1.34-17.3-2.81-3.66-.94-7.77-1.78-12.13-3.07s-9.12-2.65-14-4.55a231.73,231.73,0,0,1-32.31-14.38,341.71,341.71,0,0,1-35.59-22c-12.16-8.52-24.49-18.19-36.82-28.66s-24.54-21.84-37-33.38S623.79,1156,611,1144.6s-26-22.33-39.43-32.45a328.65,328.65,0,0,0-41.41-26.77,241.27,241.27,0,0,0-42.38-17.66,203.18,203.18,0,0,0-40.32-8.22c-6.35-.73-12.48-.75-18.3-.88-5.8.31-11.34.32-16.48,1.08a129,129,0,0,0-14.36,2.3,57.47,57.47,0,0,0-6.27,1.55l-5.68,1.57c-7,2.45-12.58,4.48-16.14,6.34l-5.58,2.61-.48-.86,5.5-2.88,3-1.57,1.73-.9,2-.81c2.73-1.1,5.82-2.48,9.39-3.76l5.71-1.78a62.83,62.83,0,0,1,6.32-1.79,136.43,136.43,0,0,1,14.53-2.81,156.87,156.87,0,0,1,16.78-1.56c5.93,0,12.18-.1,18.67.52a206.83,206.83,0,0,1,41.29,7.56,231.9,231.9,0,0,1,43.45,17.65A333.61,333.61,0,0,1,574.66,1108c13.73,10.09,26.9,21.3,39.75,32.8s25.33,23.35,37.67,34.93,24.52,22.92,36.63,33.46,24.16,20.36,36.07,29a338.32,338.32,0,0,0,34.87,22.32c5.58,3.16,11.11,5.85,16.35,8.44,5.33,2.39,10.36,4.72,15.26,6.51,4.82,2,9.49,3.42,13.77,4.86s8.33,2.31,11.94,3.34c7.28,1.63,13,2.87,17.06,3.33l6.11.91Z" transform="translate(-106.61 -137.05)"/><polygon class="cls-4" points="943.77 1013.71 1179.31 1013.71 1350.74 1348.98 737.25 1348.98 943.77 1013.71"/><path class="cls-3" d="M1050.39,1146.19h235.54l155.39-677a57.08,57.08,0,0,0-55.63-69.86H918.87a57.08,57.08,0,0,0-55,72.3Z" transform="translate(-106.61 -137.05)"/><path class="cls-5" d="M1057.83,1021.65S1037.91,1125.7,1049,1170s35.42,115.12,35.42,139.47-4.43,55.35-4.43,70.84,6.64,57.56,22.14,62,31-4.43,31-4.43-11.07-77.48-13.28-104-6.64-281.15-6.64-312.15S1057.83,1021.65,1057.83,1021.65Z" transform="translate(-106.61 -137.05)"/><path class="cls-6" d="M1219.44,1015s-8.85,39.85,26.57,119.55,62,183.75,55.35,212.53,4.42,39.85,13.28,57.56,33.21,44.27,39.85,46.49,8.85-13.29,8.85-13.29L1356,1414.1a359.68,359.68,0,0,1-13.83-67.1c-8.39-77.35-31.56-268.45-63-345.27Z" transform="translate(-106.61 -137.05)"/><path class="cls-7" d="M1080,1376.63s-4.5,8.09-2.28,23.59,4.42,37.63,4.42,37.63h2.22v-11.07s6.64,24.36,11.07,31,17.71,6.64,28.78,6.64,17.71-2.21,17.71-4.43-8.86-28.78-8.86-28.78-11.41,1.32-22.7,2.94a11.53,11.53,0,0,1-12.3-6.94C1094.31,1418.14,1084.17,1401.57,1080,1376.63Z" transform="translate(-106.61 -137.05)"/><path class="cls-8" d="M1299.14,1347.09s-8.85,2.21-6.64,17.71,6.64,31,6.64,44.27a184.7,184.7,0,0,0,2.22,26.57h2.21v-42.06s14.31,27.39,17.71,39.85c6.64,24.35,17.71,24.35,24.35,26.56,3.52,1.17,11.37.49,18-.42a10.35,10.35,0,0,0,8.63-12.91c-2-7.47-5.77-16.59-12.39-20.11l2.08,6.75s-9.67,11.2-18.52,4.55-13.28-17.71-19.93-33.2S1305.78,1347.09,1299.14,1347.09Z" transform="translate(-106.61 -137.05)"/><path class="cls-9" d="M1077.76,598.81s-55.35,323.22-42.07,458.26c0,0,181.54,2.22,263.45-11.07,0,0-55.34-272.3-59.77-303.29s-28.78-132.83-28.78-132.83S1115.39,643.09,1077.76,598.81Z" transform="translate(-106.61 -137.05)"/><path class="cls-10" d="M1033.48,401.78s-99.62,97.41-99.62,172.68,33.21,99.62,62,106.26l11.06-15.5s-47.68-34.92-22.13-93c24.35-55.34,62-90.76,62-90.76Z" transform="translate(-106.61 -137.05)"/><polygon class="cls-11" points="997.71 229.31 1097.33 229.31 1061.91 475.04 1013.21 475.04 997.71 229.31"/><path class="cls-12" d="M1274.79,390.71s75.27,104.05,62,190.39-66.42,99.62-66.42,99.62l-13.28-15.5s77.48-90.76-11.07-201.46Z" transform="translate(-106.61 -137.05)"/><path class="cls-13" d="M1068.9,594.38s-44.27,53.13-53.13,112.91c-7.87,53.14,0,249.81,1.85,292.76a18.4,18.4,0,0,0,6.94,13.64c16,12.71,58.6,45.37,100.44,66.48a11.31,11.31,0,0,0,16.4-10.45c-2.27-74.6-10.81-353.22-12.72-393.43-2.22-46.49,0-321,0-321l-93.51,40.65a11.73,11.73,0,0,0-6.9,12.6L1042.34,497Z" transform="translate(-106.61 -137.05)"/><path class="cls-14" d="M1192.88,357.5,1277,386.28l2.22,4.43-57.56,217s13.28,33.21,17.71,46.49c3.93,11.79,51.4,274.42,62.08,333.59a18.44,18.44,0,0,1-7.77,18.53c-22.23,15.17-76.41,52-104.31,69.81a11.31,11.31,0,0,1-17.39-8.95l-23.38-448.4Z" transform="translate(-106.61 -137.05)"/><path class="cls-15" d="M1066.69,583.31,1064.47,601s50.92,49.33,161.61,16.92l-2.21-19.13S1097.68,598.81,1066.69,583.31Z" transform="translate(-106.61 -137.05)"/><path class="cls-16" d="M1082.18,339.79s-4.42-24.35,62-24.35,86.34,15.49,81.91,33.21c0,0,13.29,6.64,6.65,28.77s-101.84,68.63-132.83,112.91S1013.56,368.57,1082.18,339.79Z" transform="translate(-106.61 -137.05)"/><path class="cls-17" d="M1097.68,339.79c11.07,17.71,79.7,28.78,101.84,15.5,13.56-8.14,20.46-17.11,18.18-26.4-11.37-8.06-34.35-13.45-73.53-13.45-25.51,0-40.54,3.59-49.41,8C1093.45,327.91,1093.7,333.42,1097.68,339.79Z" transform="translate(-106.61 -137.05)"/><path class="cls-18" d="M998.06,667.44s13.28-15.5,24.35-15.5,15.5,6.64,24.35,13.28,0,6.65-11.07,22.14S980.35,705.07,998.06,667.44Z" transform="translate(-106.61 -137.05)"/><path class="cls-19" d="M1265.93,665.22s-15.49-4.42-26.56-11.07-33.21,15.5-33.21,15.5,2.21,11.07,19.92,15.5,46.5,22.48,46.5-6.64C1272.58,665.22,1265.93,665.22,1265.93,665.22Z" transform="translate(-106.61 -137.05)"/><path class="cls-20" d="M1210.59,224.67s13.28,0,15.49,19.92S1204,273.37,1204,273.37l-13.29-2.21,6.64-42.06Z" transform="translate(-106.61 -137.05)"/><path class="cls-21" d="M1088.83,269s13.28,66.41,53.13,75.27,53.13-53.13,55.34-57.56c0,0,8.86,4.43,11.07-4.43s13.29-31-6.64-31c0,0,4.43-22.14-2.21-33.21s-19.93-37.64-48.71-31S1088.83,235.74,1088.83,269Z" transform="translate(-106.61 -137.05)"/><path class="cls-22" d="M1073.33,184.82s-4.43,26.57-22.14,13.28-39.85-33.2-62-13.28S995.85,218,995.85,218s-11-4.73-18.47,4.43A6.62,6.62,0,0,1,968.7,224c-2.71-1.68-6.36-2.44-10.49.66-8.86,6.64-15.5,26.57,0,62,13.2,30.18,39.27,31.43,53.53,14.71a6.62,6.62,0,0,1,9.38-.48c2.25,1.89,6,2.85,12.36,1.26,6.74-1.68,9.31-4.32,9.91-7a6.72,6.72,0,0,1,6.59-5.12c3.09,0,6.24-1.34,8.42-5.55a6.76,6.76,0,0,1,6.48-3.71c4.94.38,12.27-.37,15.09-7.44,4.43-11.06,9.39-11.79,9.39-11.79s19.39,7.37,46-17,28.78-28.78,46.49-24.35c0,0,6.64,26.57,24.35,24.35a9.84,9.84,0,0,1,4.43-11.06c6.36-4.25,20.86-24.76-7.17-40.1a6.81,6.81,0,0,1-3.46-6.15c.18-8.18-2.93-26.68-31.44-40.09-36.23-17.05-60.15-11.54-71.76,8.65a6.45,6.45,0,0,1-3.88,3C1087.42,160.36,1075.05,165.93,1073.33,184.82Z" transform="translate(-106.61 -137.05)"/><path class="cls-23" d="M1093.25,271.16s0-13.28-11.07-11.07,2.33,34.53,12.24,28.33Z" transform="translate(-106.61 -137.05)"/><path class="cls-24" d="M1917.14,808.22s-11.35,1.76-24.1,10.29a6.35,6.35,0,0,0-2.81,6.07c1.53,12.1,7.81,51.25,28.52,89.5a9.63,9.63,0,0,1,.92,6.6l-3.6,16.74-6.67,6.26h17.18l11.45-31-4.9-1.55a9.26,9.26,0,0,1-6.46-8.67l-.58-33.21c.49-14.8-9.07-25-9.07-25l27.44-1.33Z" transform="translate(-106.61 -137.05)"/><path class="cls-25" d="M1902.69,946.7c-1.56,2,16.84,4.75,26.14.27,0,0,12.9-22.43,12.9-34,0,0-1-2.35-8.6-1.82,0,0-4.33,26.56-8.9,29.53s-12.78.3-12.78.3S1905,943.68,1902.69,946.7Z" transform="translate(-106.61 -137.05)"/><path class="cls-26" d="M1941,844.77c-.14-.25-29.54-3.54-29.54-3.54a68,68,0,0,1-2,21.25c-3,12.31-46.17,65.62-46.17,65.62l4.52,14.35a72.82,72.82,0,0,1-41.3,2.48l28-16.83s26.25-89.46,42.33-105.42l29.47-10.19Z" transform="translate(-106.61 -137.05)"/><path class="cls-27" d="M2006.93,792.72s16.93,25.19,18.32,36.68-4.64,16.17-22.41,16.94-65.22.75-65.22.75l-40.49-34.6S1926.64,802,1934.31,799,2006.93,792.72,2006.93,792.72Z" transform="translate(-106.61 -137.05)"/><path class="cls-28" d="M1866,937.62s4.88,4.72,1.59,10c0,0-38.61,6.84-49.09,3.73,0,0,2.18-5,14-10.62l-.87.67a1.41,1.41,0,0,0,.93,2.53C1840.36,943.46,1856.45,942,1866,937.62Z" transform="translate(-106.61 -137.05)"/><path class="cls-29" d="M2000.47,653.4s30.1-7.79,36,19.92-25.49,25.34-23.7,54.9c0,0-20.38,1.16-11-26.91s2.63-37.5-6.38-40.94Z" transform="translate(-106.61 -137.05)"/><path class="cls-30" d="M1968.09,795.76s-18.75-44.49-24.26-59.28a26.37,26.37,0,0,1,2.89-24c8.72-12.91,20.89-25.29,22.3-27.37,2.16-3.19,23.21,3.62,23.21,3.62s33,40,34.89,90.82l-20.11-.09s-5.09-21.6-12.15-36.54c0,0,10.8,30.33,8.29,40.55Z" transform="translate(-106.61 -137.05)"/><path class="cls-31" d="M1972.68,664.65c0,.8-.27,20.79,0,21.3s11.75,4.82,18.41,2.81l-3-27.09Z" transform="translate(-106.61 -137.05)"/><path class="cls-32" d="M1963.54,633.41s-7.56,8.41-7.58,25.06,7.73,20.68,14.15,18.72,15.36-6.31,20.75-19.59S1973.59,622.93,1963.54,633.41Z" transform="translate(-106.61 -137.05)"/><path class="cls-33" d="M1981,653.33s-2.24-23.29-20-15.22l-2.79,4.86s-11.68-8-3.51-18.29,22.68-11.77,34,.45,16.54,21.46,12.23,31.86-11.08,4.08-11.08,4.08,1.09-8.34-2.19-11-5.19,3.3-5.19,3.3Z" transform="translate(-106.61 -137.05)"/><path class="cls-34" d="M1984.07,654.62s-1.23-12,5.49-10.13.56,11.33-2,14.67Z" transform="translate(-106.61 -137.05)"/><path class="cls-35" d="M1924.61,805l11.49-16.53,21.32,4.38s20.17-.86,30.77-6.13l10.59-5.26,23.75-12.93,6.21,10.45a6.88,6.88,0,0,1-.92,8.26,46.75,46.75,0,0,1-5.6,5.26c-3,2.12-82.37,15.36-82.37,15.36Z" transform="translate(-106.61 -137.05)"/><path class="cls-36" d="M2003.41,1033.59s10.25,5,12.14,10.72c1.51,4.6,12.85,5.19,14,14.24a10.39,10.39,0,0,0,8.68,9.12c11.59,1.77,29.43,7.78,32.29,27.89,2.18,15.35-5.65,21.17-13.86,23.18a11.64,11.64,0,0,0-8.82,13.44c1.17,5.84-.57,12.59-10.69,17.93-22.67,12-45.31-28.34-45.31-28.34l-4.64-70.38Z" transform="translate(-106.61 -137.05)"/><path class="cls-37" d="M1880,1016.91s45.27,71.6,99.1,85.43c0,0-10.49,29.88-18.58,33.3,0,0-66.23-55.26-83.25-108.56Z" transform="translate(-106.61 -137.05)"/><path class="cls-38" d="M2096.6,1474.88l1.47,12.06a5,5,0,0,0,4.37,4.36,77.38,77.38,0,0,0,16.14.25,4.26,4.26,0,0,0,3.58-5.53c-1.48-4.66-4.18-11.65-8.09-15.76h-13.38A4.12,4.12,0,0,0,2096.6,1474.88Z" transform="translate(-106.61 -137.05)"/><path class="cls-39" d="M1991.81,1333.59l-2.26,13.28s7.56,76.61,8.91,107.25a23.93,23.93,0,0,1-3.56,13.64l-13.15,21.36,33.42-19.73.67-4.07-5.47-7.53,7.16-85.81a26.2,26.2,0,0,0-3-14.56l-6.91-13Z" transform="translate(-106.61 -137.05)"/><path class="cls-40" d="M1979.55,1492.21h10.67a6.43,6.43,0,0,0,5.1-2.5c3.32-4.32,10.21-12.75,13.5-13,4.44-.29,3.87,15.47,3.87,15.47h2.48l3.15-19.59a11.6,11.6,0,0,0-6.08-12.12h0s-1,7.5-6.51,10.81-22.37,15.19-22.37,15.19a15.31,15.31,0,0,0-4.33.12A2.82,2.82,0,0,0,1979.55,1492.21Z" transform="translate(-106.61 -137.05)"/><path class="cls-41" d="M2037.58,1339.9s44.31,84,51.35,103.23,9.51,35.19,9.6,36.71c.15,2.36,3.1,4.64,11.22,4.64,4.19,0,6.24-1.68,7.24-3.31a4.72,4.72,0,0,0,.18-4.59c-2.56-5.18-10.69-21.76-13.7-29.27-3.6-9-11.34-49.66-15.58-63.8s-9-29.48-27.51-43.61C2060.38,1339.9,2047.7,1327.48,2037.58,1339.9Z" transform="translate(-106.61 -137.05)"/><path class="cls-42" d="M2009.6,1202.2c-11.43-48.43,17.52-75.82,17.52-75.82-18.27-17.53-51.55-25.51-51.55-25.51s-31.76,23.22-28,41.39c2.2,10.65,22.32,63.8,22.32,63.8S1988.5,1214.87,2009.6,1202.2Z" transform="translate(-106.61 -137.05)"/><path class="cls-43" d="M2034.93,1226.17c-4.65-14-25.33-24-25.33-24-21.1,12.67-39.7,3.86-39.7,3.86s-4.17,16-1.29,30.77,20.94,110,20.94,110c28.46,5.77,72.24-5.8,72.24-5.8C2043.66,1308.88,2039.58,1240.18,2034.93,1226.17Z" transform="translate(-106.61 -137.05)"/><path class="cls-44" d="M1996.33,1068.87l9.29,41.73c.89,3.68-2.46,3.08-6.18,2.37-6.08-1.14-13.93-3.51-16.55-8.24a4.53,4.53,0,0,1-.48-1.58l-4-28.94a5.21,5.21,0,0,1,3-5.46l7.7-3.41A5.19,5.19,0,0,1,1996.33,1068.87Z" transform="translate(-106.61 -137.05)"/><path class="cls-45" d="M1978.53,1030.82s-9.89,6.7-14.14,23.75,2.66,23.17,9.74,22.79,17.35-2.56,26.24-14.8S1991.5,1022.64,1978.53,1030.82Z" transform="translate(-106.61 -137.05)"/><path class="cls-46" d="M1991.4,1055.69s3.62-24.44-16.66-20.7l-4.1,4.27s-9.93-11.18,1.06-19.64,26.23-6.28,34.67,9.1,11.5,26.21,4.43,35.77-12.39,1.36-12.39,1.36,3.24-8.28.55-11.83-6.16,2.07-6.16,2.07Z" transform="translate(-106.61 -137.05)"/><path class="cls-47" d="M1994.17,1057.78s1.79-12.57,8.21-9-2.31,11.74-5.81,14.52Z" transform="translate(-106.61 -137.05)"/><path class="cls-48" d="M1880.35,1031.65c-.13,1.48,5.36,2.5,7.11-3.8-.48-2.73-1.34-14.7-3.43-16.56-11.17-9.91-31.07-21-31.07-21a4.07,4.07,0,0,0,.69,5.64l9.94,6.7c-1,3.44-2.55,6.47-2.72,10.39a11.63,11.63,0,0,0,2.93,8.13c2,2.26,4.64,5.17,7,7.39A11.5,11.5,0,0,0,1880.35,1031.65Z" transform="translate(-106.61 -137.05)"/><path class="cls-49" d="M1874.8,1026.83c-1.34-3.26-5.19-12.13-6.91-13.92a5,5,0,0,1-1.76-3.69,3.72,3.72,0,0,1,1.56-2.68l.51-.42,9.56,5.11,3.8,6-1.66,1.06-3.53-5.52-7.89-4.22a1.45,1.45,0,0,0-.38.83,3.37,3.37,0,0,0,1.21,2.2c2.29,2.39,6.81,13.31,7.32,14.54Z" transform="translate(-106.61 -137.05)"/><path class="cls-50" d="M2027.12,1126.38s51.44,105.61,70.06,114.84c0,0,18.92,2,30.49,5.48a3,3,0,0,1-.12,5.82c-8.06,2.2-21.41,4-33.65-2.61,0,0,6.57,9.85,2.74,13.69,0,0-8.77-10.4-12.06-13.69-2.89-2.9-55.57-60.32-77.71-95-1.79-2.79-.55-11.11.69-14.19C2010.42,1133.67,2016.77,1122.35,2027.12,1126.38Z" transform="translate(-106.61 -137.05)"/><path class="cls-51" d="M519.21,579.78A54.49,54.49,0,0,1,539,588.22a5.21,5.21,0,0,1,2.3,5c-1.25,9.93-6.41,42.08-23.41,73.47a7.93,7.93,0,0,0-.75,5.43l3,13.74,5.48,5.14H511.46l-9.39-25.42,4-1.27a7.61,7.61,0,0,0,5.31-7.12l.47-27.27c-.4-12.15,7.45-20.53,7.45-20.53l-22.53-1.09Z" transform="translate(-106.61 -137.05)"/><path class="cls-52" d="M531.07,693.46c1.29,1.69-13.82,3.91-21.46.23,0,0-10.58-18.42-10.58-27.9,0,0,.84-1.93,7.05-1.49,0,0,3.56,21.8,7.31,24.24s10.5.25,10.5.25S529.18,691,531.07,693.46Z" transform="translate(-106.61 -137.05)"/><path class="cls-53" d="M499.63,609.78c.12-.21,24.26-2.9,24.26-2.9a55.76,55.76,0,0,0,1.68,17.44c2.46,10.1,37.9,53.88,37.9,53.88L559.76,690a59.63,59.63,0,0,0,33.91,2l-23-13.81s-21.55-73.45-34.75-86.55l-24.2-8.37Z" transform="translate(-106.61 -137.05)"/><path class="cls-4" d="M445.5,567.05s-13.91,20.68-15.05,30.12,3.81,13.27,18.4,13.9,53.55.62,53.55.62l33.24-28.41s-24.22-8.65-30.52-11.09S445.5,567.05,445.5,567.05Z" transform="translate(-106.61 -137.05)"/><path class="cls-54" d="M561.16,686s-4,3.87-1.3,8.18c0,0,31.69,5.62,40.3,3.07,0,0-1.79-4.08-11.48-8.72l.72.55a1.16,1.16,0,0,1-.77,2.08C582.25,690.8,569,689.63,561.16,686Z" transform="translate(-106.61 -137.05)"/><path class="cls-55" d="M474.57,445.51c-2.1.65-9.67,3.37-8.69,8.24a.89.89,0,0,1-1.12,1c-3.26-.87-10.47-2-14.94,3.62-3.95,4.94-1,9.61,1.4,12.17a.9.9,0,0,1-.74,1.52c-6-.76-19-.94-21.18,11.27-2,11.39,5.94,14.6,10.64,15.51a.89.89,0,0,1,.3,1.63c-2.34,1.49-5.06,4.56-4,10.63,1.72,9.51,20.36,8.73,22.54,8.61a.89.89,0,0,0,.39-.12l29.87-17a.91.91,0,0,0,.44-.63l6-34.82a.9.9,0,0,0-.24-.78l-15-21.5C483.76,443,474.9,445.41,474.57,445.51Z" transform="translate(-106.61 -137.05)"/><path class="cls-3" d="M484.08,559s16.19-15.42,24.16-25.64a21.64,21.64,0,0,0,3.67-19.5c-3.64-12.26-10.1-25-10.69-26.94-.91-3-19.07-2.9-19.07-2.9s-35.73,23.19-49.77,62.47l15.77,4.91s9.33-15.65,18.55-25.6c0,0-15.95,21.07-16.51,29.69Z" transform="translate(-106.61 -137.05)"/><path class="cls-56" d="M503.41,470c-.19.63-4.93,16.34-5.3,16.67s-10.39.86-15.11-2.36l9-20.48Z" transform="translate(-106.61 -137.05)"/><path class="cls-57" d="M504.9,435.44s7.31,5.73,9.69,19.19-3.31,17.82-8.78,17.15-13.32-2.92-19.56-12.89S495.29,428.4,504.9,435.44Z" transform="translate(-106.61 -137.05)"/><path class="cls-58" d="M493.58,454s-1.49-19.15,14-15.16l2.95,3.54s8.31-8.14.24-15.29-20-6.29-27.39,5.19-10.33,19.7-5.36,27.5,9.54,1.72,9.54,1.72-2.07-6.59.21-9.2,4.67,1.93,4.67,1.93Z" transform="translate(-106.61 -137.05)"/><path class="cls-59" d="M494,455.51s-.71-9.85-5.88-7.41,1.16,9.24,3.73,11.58Z" transform="translate(-106.61 -137.05)"/><path class="cls-60" d="M517.07,560.11l-11.9-11.47-16.46,7s-16.38,2.54-25.76,0l-9.38-2.54-21.19-6.6-3.32,9.41a5.64,5.64,0,0,0,2.07,6.5,36.73,36.73,0,0,0,5.35,3.34c2.79,1.22,68.79-.85,68.79-.85Z" transform="translate(-106.61 -137.05)"/><path class="cls-61" d="M541.88,526.21l-.64-3.35a6.43,6.43,0,0,0-3.32-4.51l-16.93-9s0-2.29,4.14-3.41,3.7-5.7,3.7-5.7-5.73,1.92-14.15,5a18.86,18.86,0,0,0-9.49,8.37L500,518.82a8.85,8.85,0,0,0,6.68,5.84l2.46-4.53A81.3,81.3,0,0,0,541.88,526.21Z" transform="translate(-106.61 -137.05)"/><path class="cls-62" d="M500,518.82l-19.36,19.12a10.84,10.84,0,0,1-14.75.45l-14.31-27.46-15.18,38.42,20.83,13.1a23.87,23.87,0,0,0,33.67-8.79l15.78-29A8.85,8.85,0,0,1,500,518.82Z" transform="translate(-106.61 -137.05)"/><path class="cls-63" d="M509.12,736.9c-12.19,0-17.58-1-20-2a4.61,4.61,0,0,0,4.5,3.58h43.13a2.1,2.1,0,0,0,2-2.65C533.86,736.23,523.42,736.9,509.12,736.9Z" transform="translate(-106.61 -137.05)"/><path class="cls-64" d="M538.78,735.83a2,2,0,0,0-.35-.73c-3.29-4.2-9.89-10.78-18.87-10.66-13.15.19-17.73,1.62-27.95.08l-2.41,8a4.49,4.49,0,0,0-.07,2.38c2.41,1,7.8,2,20,2C523.42,736.9,533.86,736.23,538.78,735.83Z" transform="translate(-106.61 -137.05)"/><path class="cls-65" d="M494.57,715.91l-3,10.07s6.56,3,12.32.59l1.13-8.72Z" transform="translate(-106.61 -137.05)"/><path class="cls-66" d="M584,730.56c-9.51,7.64-14.36,10.2-16.84,11a4.63,4.63,0,0,0,5.75,0l33.62-27a2.09,2.09,0,0,0-.08-3.32C602.82,714.54,595.1,721.6,584,730.56Z" transform="translate(-106.61 -137.05)"/><path class="cls-67" d="M606.41,711.16a1.84,1.84,0,0,0-.73-.35c-5.18-1.2-14.43-2.17-21.35,3.55-10.13,8.38-12.82,12.36-21.74,17.57l3.1,7.71a4.55,4.55,0,0,0,1.43,1.89c2.48-.77,7.33-3.33,16.84-11C595.1,721.6,602.82,714.54,606.41,711.16Z" transform="translate(-106.61 -137.05)"/><path class="cls-68" d="M431.26,601.24s73,6,88,13S507,720.08,507,720.08s-4.07,2-13.14-.86c0,0,9.3-72.9,2.38-88.7l-79-12.93Z" transform="translate(-106.61 -137.05)"/><path class="cls-69" d="M555.34,718.05c.68.62,7.25,13.88,7.25,13.88s7.32-1.58,8.81-6.22l-6.58-12Z" transform="translate(-106.61 -137.05)"/><path class="cls-70" d="M387.3,600.63A36.89,36.89,0,0,0,385,614a20,20,0,0,0,19.1,19.58l86.28,3.93a4.14,4.14,0,0,1,3.82,3.11c2,7.84,11.94,31.93,60.38,80a3.9,3.9,0,0,0,4.83.53l6.9-4.36a1.59,1.59,0,0,0,.52-2.14L516.61,628.8A19.39,19.39,0,0,0,504.8,620l-73.54-18.8Z" transform="translate(-106.61 -137.05)"/><path class="cls-71" d="M387.07,600.38s-.86-42.77,7.69-83a65,65,0,0,1,23.31-37.58l4-3.14,20,8.12,13,19.71a46.34,46.34,0,0,1,2.17,36.35c-7.13,19.91-17.72,50-20.15,60.17C437.06,601,403.94,605.38,387.07,600.38Z" transform="translate(-106.61 -137.05)"/><path class="cls-72" d="M435.81,444.78,420.19,481s5,11.25,22.49,6.88l6.25-25Z" transform="translate(-106.61 -137.05)"/><path class="cls-73" d="M471.1,587.54c.17-.6,38.27-59.07,38.27-59.07l22,2.59-45.86,62.7Z" transform="translate(-106.61 -137.05)"/><path class="cls-74" d="M469.37,589c.84,1.55,12.83,5.09,12.83,5.09l46.74-65.7-21-1.64Z" transform="translate(-106.61 -137.05)"/><path class="cls-75" d="M466.77,428.25c.19.51.6,36.21.6,36.21L447,464.27l-5.42-33.79S463.62,419.78,466.77,428.25Z" transform="translate(-106.61 -137.05)"/><path class="cls-76" d="M447.54,437,449,455a2.6,2.6,0,0,0,.15.67c.49,1.33,2.52,5.78,7,3.42,4-2.14,7.71-4,10.6-3.78a2.53,2.53,0,0,1,2.32,2.48,109.35,109.35,0,0,1-1,16.9,2.5,2.5,0,0,1-2.67,2.1c-3.92-.27-12.17-1.09-18.65-3.3a2.51,2.51,0,0,1-1.68-2c-.77-4.46-3.16-18-4.41-21.68-1.17-3.45-6-4.63-8-5a2.47,2.47,0,0,1-1.64-1.06c-1.34-2-3.64-6.8,2.29-10.25a2.54,2.54,0,0,0,.87-3.54c-1.51-2.42-2.78-6.35,1.68-9.63s8.85-1.46,11.34.27a2.54,2.54,0,0,0,3.23-.31,2,2,0,0,1,2.24-.4,2.49,2.49,0,0,0,3.21-1.79c.67-2.72,2.55-5.89,7.64-6.11,9-.39,12.11,9,11,15.2s-10.89,6-16.2,4.18c-4-1.39-8.18,1.88-9.93,3.53A2.52,2.52,0,0,0,447.54,437Z" transform="translate(-106.61 -137.05)"/><path class="cls-77" d="M441.17,456.39s1.41-10.8-2.8-12.46-9.38.79-6.61,7.8C435.2,460.44,441.17,456.39,441.17,456.39Z" transform="translate(-106.61 -137.05)"/><path class="cls-78" d="M483.45,571c-51.27,16.89-49.55-55.63-49.89-56.13-20.85-30.91-31.73,10.82-29.67,16.65,19,65.3,64.63,61.41,82.23,48.29A14.29,14.29,0,0,1,483.45,571Z" transform="translate(-106.61 -137.05)"/><path class="cls-79" d="M443.82,560.41a1.23,1.23,0,0,1-.72-.53c-8-12-10.42-28.91-11.06-40.94a1.31,1.31,0,0,1,2.62-.14c.51,9.58,2.57,27.47,10.62,39.63a1.32,1.32,0,0,1-.37,1.82A1.28,1.28,0,0,1,443.82,560.41Z" transform="translate(-106.61 -137.05)"/><path class="cls-80" d="M429.67,577.09a1.45,1.45,0,0,1-.46-.24c-11.9-9.7-21-25.07-27-45.7a1.31,1.31,0,0,1,2.52-.73c5.85,20.1,14.65,35,26.14,44.39a1.31,1.31,0,0,1-1.2,2.28Z" transform="translate(-106.61 -137.05)"/><path class="cls-81" d="M513.55,555.48s-.82,1.35-6.78,6.1-12,7.54-7.48,1,2.23-9.76-2.93-2.77-8.89,9.71-8.89,9.71q-2.06.82-4,1.47a14.29,14.29,0,0,0,2.67,8.81c2.08-.72,3.25-1.25,3.25-1.25s15.91-3.13,19.23-10A79,79,0,0,0,513.55,555.48Z" transform="translate(-106.61 -137.05)"/><path class="cls-82" d="M877.51,996.55s-30.34,68.78-32.37,97.1-26.29,125.43-40.46,159.82-18.2,52.6-16.18,68.78,2,22.25-4,26.3-20.23-8.09-18.2-22.25,14.16-36.42,10.11-52.6-2-99.13,10.12-135.54,32.37-99.13,28.32-135.54S877.51,996.55,877.51,996.55Z" transform="translate(-106.61 -137.05)"/><path class="cls-83" d="M737.93,1000.6s24.27,64.73,28.32,89,0,58.66,6.07,99.12,30.34,93.06,32.36,123.41a466.31,466.31,0,0,0,8.1,58.66s8.09,16.19,24.27-2c0,0-18.2-163.86-22.25-194.21s-8.09-161.84-8.09-174S737.93,1000.6,737.93,1000.6Z" transform="translate(-106.61 -137.05)"/><path class="cls-84" d="M810.75,1356.64s18.54,15.14,25.46,4.54L835.07,1351a82,82,0,0,1,6,15.73c2,8.09,2,24.27,0,26.3s-12.14,2-16.19,0C821.3,1391.25,800.64,1382.94,810.75,1356.64Z" transform="translate(-106.61 -137.05)"/><path class="cls-85" d="M789.07,1325.13s3.48,15.33,3.48,21.4-12.14,12.14-14.16,14.16-24.28-16.19-12.14-36.42c0,0,4,18.21,12.14,18.21S789.07,1325.13,789.07,1325.13Z" transform="translate(-106.61 -137.05)"/><path class="cls-86" d="M758.16,711.31S744,792.23,737.93,838.76s-6.07,85-12.14,113.28c0,0,6.07,22.26,6.07,42.49s-2,10.11-4.05,2,2-12.14-2-14.16,2,28.32,2,38.44,0,6.06-8.09-6.07-14.16-28.33-10.12-46.53,6.07-16.19,4-30.35-4-78.89-2-117.33,14.16-121.38,22.25-153.75c0,0,64.73-50.57,178-18.21,0,0,34.39,93.06,20.23,182.07S916,905.51,916,917.65s0,30.35-2,38.44-16.19,16.18-20.23,22.25-4.05-8.09,0-22.25,10.11-14.16,10.11-22.25-6.07,0-8.09,10.11-6.07,2-2-8.09,6.06-16.18,8.09-28.32S916,757.84,889.65,707.26Z" transform="translate(-106.61 -137.05)"/><path class="cls-87" d="M804.68,594l-6.07,52.6s30.35,4,44.51-4L837.05,596Z" transform="translate(-106.61 -137.05)"/><path class="cls-88" d="M784.45,567.67s6.07,54.63,32.37,54.63,40.46-44.51,40.46-62.72S849.19,517.1,833,517.1,780.41,519.12,784.45,567.67Z" transform="translate(-106.61 -137.05)"/><path class="cls-89" d="M786.48,573.74s-8.09-12.13-12.14-8.09S780.55,586,788.57,588,786.48,573.74,786.48,573.74Z" transform="translate(-106.61 -137.05)"/><path class="cls-90" d="M853.24,575.77s0-12.14,6.07-10.12-2,22.25-12.14,26.3S853.24,575.77,853.24,575.77Z" transform="translate(-106.61 -137.05)"/><path class="cls-91" d="M845.83,540.1a4.82,4.82,0,0,0-7.57-1.77,18.2,18.2,0,0,1-5.25,3c-10.12,4-16.19,4-24.28,18.2S794.18,576,787.29,575.89s-15.84-3-9.34-10.68c0,0-33.63-26.06-1.13-49.73a4.82,4.82,0,0,0,1.54-6.08c-2.9-5.68-7-16.18.92-18.24a4.88,4.88,0,0,0,3.59-3.39,6.7,6.7,0,0,1,3.29-4.57,4.53,4.53,0,0,0,2.71-3.37c1.33-9.25,6.65-37.58,21.88-37.58,15.94,0,24.13,7.75,21.85,16.47a4.94,4.94,0,0,0,1.91,5.45c3.73,2.5,8.73,8.32,6.1,21a4.85,4.85,0,0,0,3.68,5.78,12.23,12.23,0,0,1,9,7.92c1.6,4,1.61,7.07,1,9.3a4.71,4.71,0,0,0,3.32,5.54c4,1.29,8.69,4.72,9.79,13.48,1.14,9.17-1.6,14.44-4.2,17.29a4.83,4.83,0,0,0-.3,6.19c2.83,3.79,4.37,10.78-9,20.31a35.49,35.49,0,0,1-4.7-17.49C849.19,549,847.6,544.14,845.83,540.1Z" transform="translate(-106.61 -137.05)"/><path class="cls-92" d="M768.27,648.59s60.56,20.42,120.3-6l10.94,2.49-3.79,82.38s-17,39.76-23.76,59.8a27.78,27.78,0,0,0-.4,16.37c5.58,19.87,20.11,75.91,20.11,120.06,0,54.62-22.25,101.15-22.25,101.15s-69.63-20.45-123.83-3.15c0,0-31.94-122.27-11.71-156.67,12.87-21.88,28.2-42.94,37.65-55.37a26.48,26.48,0,0,0,3.7-25.33c-7-18.56-18.94-49.85-23.14-56.86L755.67,654Z" transform="translate(-106.61 -137.05)"/><path class="cls-93" d="M1555.22,1261.56s4,22.25-18.21,78.9l-12.14-52.6,12.14-34.39Z" transform="translate(-106.61 -137.05)"/><path class="cls-94" d="M1595.67,939.91s2,48.55-4,89-10.12,60.69-10.12,82.94,0,101.15-22.25,159.82c0,0-22.25,2-30.34-8.1,0,0,0-80.92,4-109.24a369.43,369.43,0,0,0,4-56.64c0-10.12-24.28-123.4-24.28-123.4V921.7l14.16-24.28Z" transform="translate(-106.61 -137.05)"/><path class="cls-95" d="M1528.92,1283.81s12.13,74.86,12.13,85,0,22.25-8.09,24.28-28.32,0-28.32,0a71.62,71.62,0,0,1-4.05-24.28c0-14.16,4.05-76.87,4.05-76.87Z" transform="translate(-106.61 -137.05)"/><path class="cls-96" d="M1446,935.86c0,2,8.1,97.1,18.21,135.54,0,0,2,107.22,36.41,224.55,0,0,22.26,2,32.37-4,0,0-6.07-111.27-8.09-129.48s-12.14-182.06-8.09-226.57Z" transform="translate(-106.61 -137.05)"/><path class="cls-97" d="M1413.61,950s-4,20.23-6.07,28.32,16.18,32.37,22.25,44.51,4-4.05,2-8.09,4,4,4,4a80.54,80.54,0,0,0-6.07-28.32s4-34.39,2-38.44S1413.61,950,1413.61,950Z" transform="translate(-106.61 -137.05)"/><path class="cls-98" d="M1433.84,670.85s-4,16.18-8.1,58.66-4,101.15-6.07,127.45-12.13,103.18-12.13,103.18,16.18,12.13,28.32,0c0,0,8.09-52.6,16.18-121.38s14.16-115.31,14.16-115.31Z" transform="translate(-106.61 -137.05)"/><path class="cls-99" d="M1617.93,650.62c2,2,40.46,80.92,48.55,143.63,0,0,22.25,76.87-14.16,115.31l-14.16-10.11s12.14-44.51,8.09-78.9-44.51-103.17-44.51-103.17Z" transform="translate(-106.61 -137.05)"/><path class="cls-100" d="M1500.59,602.07s4.05,38.43-4,56.64l30.34,206.34h8.1l20.23-212.41s-8.1-2-12.14-16.18S1537,594,1537,594Z" transform="translate(-106.61 -137.05)"/><path class="cls-101" d="M1433.84,670.85l56.64-16.19,6.07-12.13s28.32,141.61,38.44,184.09-2,76.87-10.12,109.24c-7.75,31-35.92,65.72-82.73,34.81a12.46,12.46,0,0,1-5.54-11.76c2.39-21.31,11-84.45,32.15-123.19a28.21,28.21,0,0,0,2.38-20.87C1462.48,782.64,1438.78,693.9,1433.84,670.85Z" transform="translate(-106.61 -137.05)"/><path class="cls-102" d="M1547.12,636.46s-18.72,135.71-23.52,199.35c-3,39.31,2.85,87.53,7.73,118.65a41.79,41.79,0,0,0,39.84,35.34c14.43.49,31-.23,44.56-4.3a9.49,9.49,0,0,0,6.57-11.06c-6.42-30.15-28.94-136.56-30.67-153.89-2-20.23,14-96.29,14-96.29l12.25-73.64h0a18.78,18.78,0,0,0-14.63-5.46l-48.08,3.43Z" transform="translate(-106.61 -137.05)"/><path class="cls-103" d="M1648.27,800.32s-18.2-38.44-30.34-36.41S1589.61,772,1583.54,776s-32.37,12.14-28.32,64.74,10.11,58.67,18.2,60.69,54.62,4,70.81,0C1644.23,901.47,1666.48,867.08,1648.27,800.32Z" transform="translate(-106.61 -137.05)"/><path class="cls-104" d="M1573.42,830.66s2-48.55,44.51-58.66c0,0-32.37,8.09-38.44,58.66Z" transform="translate(-106.61 -137.05)"/><path class="cls-105" d="M1603.77,798.3s14.16-10.12,18.2,20.23-2,60.69,12.14,70.8,16.75-10.11,21.52-24.28,3.19-58.61-16.24-71.79c0,0,14.95,35.38,12.93,57.63s-6.07,42.49-12.14,22.26S1640.18,770,1603.77,798.3Z" transform="translate(-106.61 -137.05)"/><path class="cls-106" d="M1648.27,901.47s0-2-12.14-4.05-26.55-3.45-29.46-3.75-4.93,3.75,7.21,5.78,9.34,5.12,9.34,5.12L1596,903.05s13.84,12.58,21.93,18.65,34.39-12.14,34.39-12.14Z" transform="translate(-106.61 -137.05)"/><path class="cls-107" d="M1490.48,575.77s-24.28,6.07-24.28-18.21c0,0-22.25-16.18-10.11-38.44S1480.36,509,1480.36,509s-12.13-26.3,10.12-26.3c0,0,14.16-6.07,10.11-12.14s-10.11-14.16,0-20.23,16.19,10.12,16.19,16.18-2-6.06,10.11-4,12.14,6.07,10.12,16.18,24.27,0,22.25,40.46c0,0,8.09,0,10.12,12.14,0,0,16.18,44.51-22.26,44.51Z" transform="translate(-106.61 -137.05)"/><path class="cls-108" d="M1482.39,539.35s-2,48.55,4,56.65,14.16,26.3,28.33,28.32,36.41-38.44,36.41-40.46-2-54.62-2-54.62S1506.66,494.85,1482.39,539.35Z" transform="translate(-106.61 -137.05)"/><path class="cls-109" d="M1486.43,567.67s-4-12.13-10.11-8.09,9.11,29.87,9.11,29.87Z" transform="translate(-106.61 -137.05)"/><path class="cls-110" d="M1547.12,567.67s0-18.2,10.12-8.09-10.12,24.28-10.12,24.28Z" transform="translate(-106.61 -137.05)"/><path class="cls-111" d="M1474.3,531.26s-8.1,24.28,16.18,16.18l24.28-8.09s24.27-14.16,28.32-8.09,8.09,21,8.09,21,8.09-21,0-33.16S1492.5,496.87,1474.3,531.26Z" transform="translate(-106.61 -137.05)"/><path class="cls-112" d="M1098.42,1146.05l-3.06,5.06a2,2,0,0,1-3.42-2.07v0l3.1-5a2,2,0,0,1,3.37,2Z" transform="translate(-106.61 -137.05)"/><path class="cls-112" d="M1086.68,1162.39l-4.08,4.28a2.09,2.09,0,0,1-3-2.88v0l4.13-4.24a2.06,2.06,0,0,1,3,2.86Z" transform="translate(-106.61 -137.05)"/><path class="cls-112" d="M1071.79,1175.91l-4.84,3.39a2.19,2.19,0,1,1-2.51-3.58h0l4.87-3.34a2.16,2.16,0,0,1,2.46,3.54Z" transform="translate(-106.61 -137.05)"/><path class="cls-112" d="M1054.63,1186.35l-5.37,2.48a2.28,2.28,0,1,1-1.91-4.13h0l5.39-2.43a2.25,2.25,0,0,1,1.87,4.09Z" transform="translate(-106.61 -137.05)"/><path class="cls-112" d="M1035.93,1193.68l-5.71,1.57a2.37,2.37,0,0,1-1.26-4.57h0l5.72-1.52a2.34,2.34,0,0,1,1.22,4.52Z" transform="translate(-106.61 -137.05)"/><path class="cls-112" d="M1016.28,1197.89l-5.88.64a2.46,2.46,0,1,1-.53-4.89h0l5.89-.58a2.43,2.43,0,0,1,.5,4.83Z" transform="translate(-106.61 -137.05)"/><path class="cls-112" d="M996.21,1198.91l-5.9-.33a2.53,2.53,0,1,1,.28-5.06h0l5.89.35a2.52,2.52,0,0,1-.28,5Z" transform="translate(-106.61 -137.05)"/><path class="cls-112" d="M976.27,1196.8l-5.81-1.14a2.57,2.57,0,0,1,1-5h0l5.8,1.16a2.56,2.56,0,0,1-1,5Z" transform="translate(-106.61 -137.05)"/><path class="cls-112" d="M956.8,1192l-5.61-1.86a2.6,2.6,0,1,1,1.63-4.93h0l5.61,1.88a2.59,2.59,0,0,1-1.64,4.91Z" transform="translate(-106.61 -137.05)"/><path class="cls-112" d="M938.08,1185l-5.37-2.47a2.63,2.63,0,1,1,2.2-4.78h0l5.37,2.49a2.62,2.62,0,1,1-2.2,4.76Z" transform="translate(-106.61 -137.05)"/><path class="cls-112" d="M920.24,1176l-5.11-3a2.66,2.66,0,0,1,2.69-4.6h0l5.1,3a2.65,2.65,0,0,1-2.69,4.57Z" transform="translate(-106.61 -137.05)"/><path class="cls-112" d="M903.35,1165.37l-4.82-3.43a2.69,2.69,0,1,1,3.12-4.39h0l4.81,3.44a2.68,2.68,0,0,1-3.12,4.37Z" transform="translate(-106.61 -137.05)"/><path class="cls-112" d="M887.44,1153.36l-4.53-3.8a2.73,2.73,0,1,1,3.5-4.18h0l4.52,3.81a2.72,2.72,0,0,1-3.5,4.16Z" transform="translate(-106.61 -137.05)"/><path class="cls-112" d="M872.5,1140.23l-4.28-4.09a2.76,2.76,0,1,1,3.81-4h0l4.26,4.1a2.75,2.75,0,0,1-3.8,4Z" transform="translate(-106.61 -137.05)"/><path class="cls-112" d="M858.4,1126.23l-4.06-4.31a2.79,2.79,0,0,1,4.06-3.82h0l4,4.32a2.78,2.78,0,0,1-4.05,3.81Z" transform="translate(-106.61 -137.05)"/><path class="cls-112" d="M845,1111.59l-3.88-4.46a2.82,2.82,0,1,1,4.26-3.7h0l3.87,4.47a2.81,2.81,0,1,1-4.25,3.68Z" transform="translate(-106.61 -137.05)"/><path class="cls-112" d="M832.19,1096.52l-3.75-4.58a2.85,2.85,0,0,1,4.41-3.62h0l3.74,4.59a2.84,2.84,0,0,1-4.4,3.6Z" transform="translate(-106.61 -137.05)"/><path class="cls-112" d="M819.74,1081.15l-3.68-4.64a2.89,2.89,0,0,1,4.52-3.59h0l3.67,4.65a2.88,2.88,0,1,1-4.51,3.57Z" transform="translate(-106.61 -137.05)"/><path class="cls-112" d="M807.51,1065.66l-3.66-4.65a2.92,2.92,0,0,1,4.58-3.61h0l3.64,4.66a2.91,2.91,0,0,1-4.57,3.59Z" transform="translate(-106.61 -137.05)"/><path class="cls-112" d="M795.31,1050.16l-3.66-4.65a2.94,2.94,0,1,1,4.63-3.64h0l3.64,4.67a2.93,2.93,0,1,1-4.62,3.62Z" transform="translate(-106.61 -137.05)"/><path class="cls-112" d="M783.11,1034.66l-3.65-4.65a3,3,0,0,1,4.68-3.68h0l3.65,4.66a3,3,0,0,1-4.68,3.66Z" transform="translate(-106.61 -137.05)"/><path class="cls-112" d="M770.92,1019.16l-3.66-4.65a3,3,0,1,1,4.73-3.72h0l3.64,4.66a3,3,0,1,1-4.72,3.7Z" transform="translate(-106.61 -137.05)"/><path class="cls-112" d="M758.72,1003.66,755.07,999a3,3,0,0,1,4.78-3.76h0l3.65,4.66a3,3,0,1,1-4.78,3.74Z" transform="translate(-106.61 -137.05)"/><path class="cls-112" d="M746.53,988.16l-3.66-4.65a3.07,3.07,0,0,1,4.83-3.8h0l3.64,4.66a3.06,3.06,0,1,1-4.82,3.78Z" transform="translate(-106.61 -137.05)"/><path class="cls-112" d="M734.35,972.65,730.71,968a3.07,3.07,0,1,1,4.82-3.79l3.66,4.66a3.07,3.07,0,0,1-4.83,3.8Z" transform="translate(-106.61 -137.05)"/><path class="cls-112" d="M722.2,957.12l-3.64-4.66a3,3,0,1,1,4.78-3.76l3.66,4.65a3,3,0,1,1-4.79,3.77Z" transform="translate(-106.61 -137.05)"/><path class="cls-112" d="M710.05,941.58l-3.65-4.66a3,3,0,1,1,4.75-3.72l3.66,4.65a3,3,0,1,1-4.76,3.74Z" transform="translate(-106.61 -137.05)"/><path class="cls-112" d="M697.9,926.05l-3.65-4.66a3,3,0,0,1,4.72-3.7l3.65,4.65a3,3,0,1,1-4.72,3.71Z" transform="translate(-106.61 -137.05)"/><path class="cls-112" d="M685.75,910.51l-3.65-4.66a3,3,0,1,1,4.68-3.66l3.65,4.65a3,3,0,1,1-4.68,3.68Z" transform="translate(-106.61 -137.05)"/><path class="cls-112" d="M673.6,895,670,890.32a2.95,2.95,0,0,1,4.64-3.64l3.65,4.65A3,3,0,1,1,673.6,895Z" transform="translate(-106.61 -137.05)"/><path class="cls-112" d="M661.44,879.46l-3.66-4.64a2.92,2.92,0,0,1,4.58-3.63l3.68,4.64a2.93,2.93,0,0,1-4.59,3.64Z" transform="translate(-106.61 -137.05)"/><path class="cls-112" d="M649.17,864.12l-3.77-4.57a2.88,2.88,0,0,1,4.43-3.67l3.79,4.53a2.9,2.9,0,1,1-4.44,3.73Z" transform="translate(-106.61 -137.05)"/><path class="cls-112" d="M636.49,849.17l-4-4.4a2.81,2.81,0,0,1,4.16-3.77l4,4.37a2.83,2.83,0,0,1-4.17,3.82Z" transform="translate(-106.61 -137.05)"/><path class="cls-112" d="M623.12,834.92l-4.24-4.13a2.73,2.73,0,0,1,3.8-3.93L627,831a2.75,2.75,0,1,1-3.82,4Z" transform="translate(-106.61 -137.05)"/><path class="cls-112" d="M608.79,821.71,604.22,818a2.66,2.66,0,0,1,3.36-4.12l4.6,3.71a2.68,2.68,0,0,1-3.37,4.17Z" transform="translate(-106.61 -137.05)"/><path class="cls-112" d="M593.35,809.93l-5-3.23a2.59,2.59,0,0,1,2.82-4.35l5,3.2a2.61,2.61,0,1,1-2.81,4.39Z" transform="translate(-106.61 -137.05)"/><path class="cls-112" d="M576.66,800.09l-5.33-2.56a2.51,2.51,0,0,1,2.14-4.53l5.36,2.51a2.53,2.53,0,1,1-2.14,4.59Z" transform="translate(-106.61 -137.05)"/><path class="cls-112" d="M558.83,792.54l-5.64-1.78a2.38,2.38,0,0,1,1.41-4.54l5.66,1.71a2.41,2.41,0,0,1-1.39,4.62Z" transform="translate(-106.61 -137.05)"/><path class="cls-112" d="M540.12,787.72l-5.86-.86a2.25,2.25,0,0,1,.62-4.45l5.87.78a2.28,2.28,0,0,1-.6,4.53Z" transform="translate(-106.61 -137.05)"/><path class="cls-112" d="M520.89,786.14l-5.91.25a2.12,2.12,0,0,1-.21-4.23l5.91-.33a2.15,2.15,0,0,1,.24,4.3Z" transform="translate(-106.61 -137.05)"/><path class="cls-112" d="M501.78,788.36l-5.71,1.51A2,2,0,0,1,495,786l5.7-1.58a2,2,0,1,1,1.08,3.9Z" transform="translate(-106.61 -137.05)"/><path class="cls-112" d="M1281.76,863.61l5.2,2.81a2.11,2.11,0,0,1-2,3.71l-.08,0L1279.8,867a2,2,0,0,1,2-3.42Z" transform="translate(-106.61 -137.05)"/><path class="cls-112" d="M1299.28,871.59l5.65,1.78a2.5,2.5,0,0,1-1.51,4.77l-.08,0-5.58-2a2.4,2.4,0,0,1,1.52-4.55Z" transform="translate(-106.61 -137.05)"/><path class="cls-112" d="M1318,876.21l5.86.77a2.83,2.83,0,1,1-.73,5.62l-.09,0-5.84-1a2.73,2.73,0,0,1,.8-5.41Z" transform="translate(-106.61 -137.05)"/><path class="cls-112" d="M1337.16,877.64l5.91-.15a3.17,3.17,0,0,1,.16,6.34h-.11l-5.92-.05a3.07,3.07,0,0,1,0-6.14Z" transform="translate(-106.61 -137.05)"/><path class="cls-112" d="M1356.38,876.31l5.85-.92a3.38,3.38,0,1,1,1,6.67h-.07l-5.87.8a3.31,3.31,0,0,1-.95-6.56Z" transform="translate(-106.61 -137.05)"/><path class="cls-112" d="M1375.28,872.48l5.69-1.64a3.58,3.58,0,1,1,2,6.88l-.07,0-5.72,1.52a3.52,3.52,0,0,1-1.88-6.78Z" transform="translate(-106.61 -137.05)"/><path class="cls-112" d="M1393.61,866.33l5.39-2.28a3.78,3.78,0,1,1,3,7l-.08,0-5.55,2.22a3.72,3.72,0,0,1-2.83-6.89Z" transform="translate(-106.61 -137.05)"/><path class="cls-112" d="M1411.1,858.2l5.21-2.82a4,4,0,1,1,3.79,7l-.07,0-5.26,2.71a3.93,3.93,0,0,1-3.67-6.94Z" transform="translate(-106.61 -137.05)"/><path class="cls-112" d="M1427.92,848.53l5-3.2a4.07,4.07,0,0,1,4.39,6.86l0,0-5,3.15a4,4,0,0,1-4.35-6.83Z" transform="translate(-106.61 -137.05)"/><path class="cls-112" d="M1444.05,837.64l4.76-3.5a4.14,4.14,0,0,1,4.91,6.67l0,0-4.79,3.47a4.12,4.12,0,0,1-4.85-6.66Z" transform="translate(-106.61 -137.05)"/><path class="cls-112" d="M1459.56,825.81l4.6-3.73a4.21,4.21,0,1,1,5.3,6.53l0,0-4.62,3.7a4.19,4.19,0,0,1-5.26-6.52Z" transform="translate(-106.61 -137.05)"/><path class="cls-112" d="M1474.62,813.28l4.48-3.88a4.27,4.27,0,1,1,5.6,6.46l0,0-4.5,3.85a4.25,4.25,0,0,1-5.55-6.45Z" transform="translate(-106.61 -137.05)"/><path class="cls-112" d="M1489.39,800.29l4.39-3.95a4.35,4.35,0,1,1,5.81,6.47l0,0-4.43,3.92a4.32,4.32,0,0,1-5.75-6.45Z" transform="translate(-106.61 -137.05)"/><path class="cls-112" d="M1504,787.09l4.38-4a4.39,4.39,0,0,1,5.9,6.5l-4.38,4a4.39,4.39,0,1,1-5.9-6.49Z" transform="translate(-106.61 -137.05)"/><path class="cls-112" d="M1518.54,773.82l4.35-4a4.36,4.36,0,0,1,5.92,6.41l-4.34,4a4.37,4.37,0,1,1-5.94-6.41Z" transform="translate(-106.61 -137.05)"/><path class="cls-112" d="M1533,760.44l4.32-4a4.34,4.34,0,0,1,5.93,6.34l-4.31,4a4.35,4.35,0,1,1-6-6.34Z" transform="translate(-106.61 -137.05)"/><path class="cls-112" d="M1547.35,747l4.31-4.07a4.32,4.32,0,0,1,5.93,6.27l-4.29,4.07a4.32,4.32,0,1,1-6-6.27Z" transform="translate(-106.61 -137.05)"/><path class="cls-112" d="M1561.66,733.42l4.28-4.08a4.29,4.29,0,1,1,5.93,6.21l-4.27,4.09a4.3,4.3,0,0,1-5.95-6.22Z" transform="translate(-106.61 -137.05)"/><path class="cls-112" d="M1575.92,719.81l4.28-4.09a4.27,4.27,0,0,1,5.91,6.16l-4.27,4.1a4.28,4.28,0,0,1-5.93-6.16Z" transform="translate(-106.61 -137.05)"/><path class="cls-112" d="M1590.16,706.17l4.27-4.1a4.24,4.24,0,0,1,5.88,6.12l-4.26,4.11a4.25,4.25,0,0,1-5.9-6.12Z" transform="translate(-106.61 -137.05)"/><path class="cls-112" d="M1604.38,692.51l4.27-4.1a4.23,4.23,0,0,1,5.86,6.09l-4.26,4.11a4.23,4.23,0,1,1-5.87-6.09Z" transform="translate(-106.61 -137.05)"/><path class="cls-112" d="M1618.62,678.86l4.28-4.09a4.19,4.19,0,0,1,5.81,6.05l-4.27,4.1a4.2,4.2,0,1,1-5.82-6.06Z" transform="translate(-106.61 -137.05)"/><path class="cls-112" d="M1632.89,665.22l4.28-4.08a4.18,4.18,0,0,1,5.77,6l-4.28,4.09a4.18,4.18,0,1,1-5.78-6Z" transform="translate(-106.61 -137.05)"/><path class="cls-112" d="M1647.2,651.63l4.31-4.06a4.15,4.15,0,0,1,5.7,6l-4.29,4.07a4.16,4.16,0,1,1-5.72-6Z" transform="translate(-106.61 -137.05)"/><path class="cls-112" d="M1661.58,638.1l4.33-4a4.13,4.13,0,0,1,5.64,6l-4.32,4a4.13,4.13,0,1,1-5.65-6Z" transform="translate(-106.61 -137.05)"/><path class="cls-112" d="M1676.05,624.65l4.35-4a4.1,4.1,0,0,1,5.56,6l-4.34,4a4.11,4.11,0,0,1-5.58-6Z" transform="translate(-106.61 -137.05)"/><path class="cls-112" d="M1690.61,611.3l4.38-4a4.08,4.08,0,0,1,5.49,6l-4.37,4a4.09,4.09,0,1,1-5.51-6Z" transform="translate(-106.61 -137.05)"/><path class="cls-112" d="M1705.29,598.08l4.42-3.93a4.05,4.05,0,1,1,5.4,6.05l-4.41,3.94a4.06,4.06,0,1,1-5.42-6Z" transform="translate(-106.61 -137.05)"/><path class="cls-112" d="M1720.11,585l4.46-3.89a4,4,0,0,1,5.3,6.08l-4.45,3.9a4,4,0,0,1-5.32-6.09Z" transform="translate(-106.61 -137.05)"/><path class="cls-112" d="M1735.08,572.08l4.52-3.81a4,4,0,0,1,5.18,6.08l-4.5,3.85a4,4,0,1,1-5.22-6.1Z" transform="translate(-106.61 -137.05)"/><path class="cls-112" d="M1750.25,559.4l4.58-3.76a3.92,3.92,0,0,1,5,6l-4.55,3.79a3.94,3.94,0,1,1-5-6.06Z" transform="translate(-106.61 -137.05)"/><path class="cls-112" d="M1765.61,546.92l4.63-3.69a3.85,3.85,0,0,1,4.82,6l-4.6,3.72a3.88,3.88,0,1,1-4.87-6Z" transform="translate(-106.61 -137.05)"/><path class="cls-112" d="M1781.16,534.69l4.69-3.61a3.78,3.78,0,0,1,4.63,6l-4.66,3.64a3.8,3.8,0,0,1-4.68-6Z" transform="translate(-106.61 -137.05)"/><path class="cls-112" d="M1796.92,522.72l4.75-3.51a3.71,3.71,0,0,1,4.44,5.94l-4.73,3.55a3.73,3.73,0,0,1-4.48-6Z" transform="translate(-106.61 -137.05)"/><path class="cls-112" d="M1812.9,511.05l4.82-3.43a3.64,3.64,0,0,1,4.24,5.92l-4.8,3.46a3.66,3.66,0,1,1-4.28-5.93Z" transform="translate(-106.61 -137.05)"/><path class="cls-112" d="M1829.12,499.7l4.89-3.33a3.56,3.56,0,0,1,4,5.88l-4.87,3.37a3.59,3.59,0,0,1-4.07-5.91Z" transform="translate(-106.61 -137.05)"/><path class="cls-112" d="M1845.58,488.69l5-3.22a3.5,3.5,0,0,1,3.82,5.86l-4.94,3.25a3.51,3.51,0,1,1-3.86-5.87Z" transform="translate(-106.61 -137.05)"/><path class="cls-112" d="M1862.28,478.06l5-3.1a3.42,3.42,0,0,1,3.6,5.82l-5,3.13a3.44,3.44,0,0,1-3.65-5.84Z" transform="translate(-106.61 -137.05)"/><path class="cls-112" d="M1879.24,467.83l5.11-3a3.35,3.35,0,0,1,3.39,5.78l-5.09,3a3.37,3.37,0,1,1-3.43-5.8Z" transform="translate(-106.61 -137.05)"/><path class="cls-112" d="M1896.46,458l5.2-2.83a3.28,3.28,0,0,1,3.15,5.75l-5.18,2.87a3.3,3.3,0,0,1-3.19-5.78Z" transform="translate(-106.61 -137.05)"/><path class="cls-112" d="M1914,448.8l5.32-2.6a3.21,3.21,0,0,1,2.84,5.75l-5.3,2.64a3.23,3.23,0,1,1-2.88-5.78Z" transform="translate(-106.61 -137.05)"/><path class="cls-112" d="M1932.09,440.4l5.46-2.28a3.1,3.1,0,0,1,2.42,5.71l-5.43,2.35a3.14,3.14,0,1,1-2.49-5.76Z" transform="translate(-106.61 -137.05)"/><path class="cls-112" d="M1950.67,433.16l5.61-1.88a3,3,0,0,1,1.93,5.63l-5.59,1.95a3,3,0,1,1-2-5.68Z" transform="translate(-106.61 -137.05)"/><path class="cls-112" d="M1969.79,427.38l5.75-1.37a2.84,2.84,0,0,1,1.36,5.52l-5.73,1.45a2.88,2.88,0,1,1-1.41-5.59Z" transform="translate(-106.61 -137.05)"/><path class="cls-112" d="M1989.4,423.42l5.87-.76A2.72,2.72,0,0,1,1996,428l-5.86.85a2.76,2.76,0,0,1-.79-5.46Z" transform="translate(-106.61 -137.05)"/><path class="cls-112" d="M2009.37,421.68l5.92,0a2.6,2.6,0,0,1,0,5.19l-5.91.1a2.63,2.63,0,1,1-.09-5.26Z" transform="translate(-106.61 -137.05)"/><path class="cls-112" d="M2029.4,422.53l5.87.76a2.46,2.46,0,0,1-.6,4.89l-5.88-.69a2.5,2.5,0,1,1,.58-5Z" transform="translate(-106.61 -137.05)"/><path class="cls-112" d="M2049.14,426.1l5.7,1.59a2.34,2.34,0,0,1-1.24,4.51l-5.71-1.52a2.37,2.37,0,1,1,1.22-4.59Z" transform="translate(-106.61 -137.05)"/><path class="cls-112" d="M2068.14,432.57l5.37,2.49a2.21,2.21,0,0,1-1.83,4l-5.41-2.42a2.25,2.25,0,1,1,1.84-4.1Z" transform="translate(-106.61 -137.05)"/><path class="cls-112" d="M2085.81,442.15l4.83,3.42a2.08,2.08,0,0,1-2.38,3.41l-4.88-3.36a2.12,2.12,0,0,1,2.41-3.49Z" transform="translate(-106.61 -137.05)"/><path class="cls-112" d="M2101.35,454.86l2.29,2.38a2,2,0,0,1-2.82,2.75l-2.32-2.34a2,2,0,1,1,2.83-2.81Z" transform="translate(-106.61 -137.05)"/><path class="cls-113" d="M650.56,1158c-.17-.07-88.83-155.33-100.81-169.94a9.26,9.26,0,0,0-8.29-3.33l-50.57,12.85-3.24,53,48.43-28.21c-4.79,33.15,57.42,82.4,78.76,100.38a4.89,4.89,0,0,1,.39,7.13l-8.52,8.92c14,14.18,30.12,23.28,48.34,27.49Z" transform="translate(-106.61 -137.05)"/><path class="cls-114" d="M611.64,1132.94s-5.44,1.76-7.28,6.6a5.54,5.54,0,0,0,2.08,6.38c9,6.42,38.49,27.12,52.11,31.18a1.54,1.54,0,0,0,1.93-1.82c-.7-3.16-3-9.48-10.25-18.74l.66,1.32a1.89,1.89,0,0,1-2.62,2.5C639.15,1155.22,620.59,1144,611.64,1132.94Z" transform="translate(-106.61 -137.05)"/><path class="cls-115" d="M616,1195.06c-.14-.09-13.45-32.14-13.59-32.23-12.2-74.26-42-137.85-50.73-154.59a9.3,9.3,0,0,0-7.45-4.94l-24.83-2.12-41.2,55.71,53.14-17.82c-11.4,31.49,39.56,92.32,56.82,114.23a4.9,4.9,0,0,1-1.06,7.07l-10.15,7c10.83,16.72,24.79,28.9,41.78,36.71Z" transform="translate(-106.61 -137.05)"/><path class="cls-116" d="M582.77,1163.67s-5.68.62-8.46,5a5.54,5.54,0,0,0,.75,6.67c7.47,8.09,32.19,34.35,44.72,41.08A1.54,1.54,0,0,0,622,1215c0-3.24-1-9.89-6.24-20.43l.37,1.43a1.89,1.89,0,0,1-3.07,1.91C605.21,1191.05,589.3,1176.27,582.77,1163.67Z" transform="translate(-106.61 -137.05)"/><path class="cls-117" d="M406.87,989.45s-22.46,33.41-24.31,48.65,6.21,20.51,29.72,22.45c70,5.79,104.46-15.18,104.46-15.18,4.78-30.52,1.56-49,27.86-60.52,0,0-1.93-2-40.43,5.71C493.47,992.71,406.87,989.45,406.87,989.45Z" transform="translate(-106.61 -137.05)"/><path class="cls-118" d="M469.66,792.47s-11.15,4.47-13.56,10.34c-1.94,4.72-13.9,4.49-15.76,13.9a10.93,10.93,0,0,1-9.81,8.93c-12.3,1-31.51,6-36,26.87-3.45,16,4.33,22.67,12.81,25.4a12.26,12.26,0,0,1,8.25,14.79c-1.67,6-.35,13.27,9.88,19.64C448.35,926.62,475.19,886,475.19,886l10.19-73.6Z" transform="translate(-106.61 -137.05)"/><path class="cls-119" d="M463.94,985s26.16-24.91,39-41.41a35,35,0,0,0,5.93-31.5c-5.88-19.81-16.32-40.32-17.28-43.51-1.46-4.9-30.79-4.69-30.79-4.69s-57.71,37.46-80.39,100.91l25.47,7.92s15.07-25.28,30-41.35c0,0-25.77,34-26.67,48Z" transform="translate(-106.61 -137.05)"/><path class="cls-120" d="M513.78,994.85l-19.66-21.38-22.69,6.11s-26.47,4.1-41.61,0l-15.15-4.1-34.23-10.65L375.07,980a9.13,9.13,0,0,0,3.34,10.51,61,61,0,0,0,8.64,5.38c4.51,2,103.84.63,103.84.63Z" transform="translate(-106.61 -137.05)"/><path class="cls-121" d="M475.47,826.81l-14.19,38.5c1.3,8,21.45,8.23,24.57,3.45a4.89,4.89,0,0,0,.61-1.62l6.39-30.1a5.48,5.48,0,0,0-2.79-6l-7.83-4.17C479.21,825.29,476.51,823.55,475.47,826.81Z" transform="translate(-106.61 -137.05)"/><path class="cls-122" d="M496,791.43s9.88,7.79,13.06,26-4.54,24.15-11.95,23.22-18-4-26.46-17.53S483,781.86,496,791.43Z" transform="translate(-106.61 -137.05)"/><path class="cls-123" d="M480.61,816.59s-2-26,19.07-20.49l4,4.8s11.27-11,.37-20.71-27.09-8.59-37.12,6.94-14.06,26.66-7.35,37.24,12.91,2.37,12.91,2.37-2.78-8.94.31-12.47,6.32,2.64,6.32,2.64Z" transform="translate(-106.61 -137.05)"/><path class="cls-124" d="M477.54,818.58s-.93-13.35-8-10.05,1.54,12.51,5,15.69Z" transform="translate(-106.61 -137.05)"/><g class="cls-125"><polygon class="cls-112" points="604.14 409.25 596.48 248.03 444.76 300.27 595 237.66 499.15 115.01 610.57 226.54 692.15 109.48 621.69 234.69 757.04 291.34 615.01 247.29 604.14 409.25"/><polygon class="cls-126" points="638.59 327.88 600.75 246.83 533.95 305.54 597.8 241.83 522.86 199.11 603.45 232.85 620.65 155.67 610.86 234.69 692.18 235.26 610.09 242.56 638.59 327.88"/></g><g class="cls-125"><polygon class="cls-112" points="1824.93 466.44 1817.27 305.23 1665.55 357.46 1815.79 294.85 1719.93 172.2 1831.36 283.73 1912.94 166.68 1842.47 291.88 1977.83 348.53 1835.8 304.49 1824.93 466.44"/><polygon class="cls-127" points="1859.38 385.07 1821.54 304.03 1754.73 362.73 1818.59 299.02 1743.64 256.3 1824.23 290.04 1841.44 212.87 1831.65 291.88 1912.96 292.45 1830.88 299.75 1859.38 385.07"/></g></svg>